<?xml version="1.0" encoding="UTF-8" standalone="no"?><!DOCTYPE svg PUBLIC "-//W3C//DTD SVG 1.1//EN" "http://www.w3.org/Graphics/SVG/1.1/DTD/svg11.dtd"><svg width="100%" height="100%" viewBox="0 0 425 550" version="1.1" xmlns="http://www.w3.org/2000/svg" xmlns:xlink="http://www.w3.org/1999/xlink" xml:space="preserve" xmlns:serif="http://www.serif.com/" style="fill-rule:evenodd;clip-rule:evenodd;stroke-linejoin:round;stroke-miterlimit:1.41421;"><g><clipPath id="_clip1"><rect x="2.5" y="-9" width="420" height="588.875"/></clipPath><g clip-path="url(#_clip1)"><rect x="2.5" y="-1186.75" width="420" height="1765.75" style="fill:#fff;"/><rect x="2.5" y="-9" width="420" height="588" style="fill:#fff;"/><g><clipPath id="_clip2"><rect x="11.25" y="419.75" width="148.75" height="123.375"/></clipPath><g clip-path="url(#_clip2)"><path d="M119.742,515.727c0,0 9.777,-9.912 7.116,-16.121c-3.052,-7.13 -15.685,3.306 -13.42,15.671l6.304,0.45Z" style="fill:#f9b01e;fill-rule:nonzero;"/><path d="M131.597,517.722c0,0 6.89,12.085 2.715,17.402c-4.791,6.106 -14.304,-7.218 -8.922,-18.587l6.207,1.185Z" style="fill:#f9b01e;fill-rule:nonzero;"/><path d="M105.281,514.504c0,0 7.957,13.959 3.137,20.101c-5.535,7.054 -17.081,-7.496 -10.865,-20.627l7.728,0.526Z" style="fill:#f9b01e;fill-rule:nonzero;"/><path d="M36.302,458.563c0,0 11.624,-9.623 18.108,-6.198c7.446,3.931 -5.002,16.579 -18.192,13.022l0.084,-6.824Z" style="fill:#f9b01e;fill-rule:nonzero;"/><path d="M35.214,445.625c0,0 -12.469,-8.509 -18.605,-4.499c-7.049,4.605 6.523,16.047 19.326,11.285l-0.721,-6.786Z" style="fill:#f9b01e;fill-rule:nonzero;"/><path d="M36.318,474.235c0,0 -14.404,-9.827 -21.492,-5.197c-8.142,5.317 6.572,19.059 21.36,13.56l0.132,-8.363Z" style="fill:#f9b01e;fill-rule:nonzero;"/><path d="M54.707,519.596c5.673,0.706 11.251,1.623 17.155,1.665c8.418,0.061 17.419,-1.722 23.522,-8.462c5.405,-5.968 8.185,-12.303 12.378,-19.348l-0.056,-0.119c-5.675,-0.705 -11.253,-1.623 -17.151,-1.664c-8.427,-0.059 -17.421,1.722 -23.524,8.461c-5.406,5.966 -7.713,13.114 -12.38,19.348" style="fill:#f9b01e;fill-rule:nonzero;"/><path d="M57.546,492.183c4.98,-2.33 10.029,-4.44 14.718,-7.407c6.676,-4.228 12.483,-10.201 12.446,-18.609c-0.037,-7.441 -2.405,-13.84 -4.172,-21.517l-0.128,-0.065c-4.982,2.327 -10.035,4.44 -14.715,7.406c-6.682,4.232 -12.491,10.204 -12.446,18.607c0.032,7.442 3.355,14.241 4.168,21.521" style="fill:#f9b01e;fill-rule:nonzero;"/><path d="M62.456,501.877c7.383,-5.357 16.371,-8.77 25.301,-10.375c0.479,-0.085 0.275,-0.812 -0.202,-0.726c-8.966,1.609 -18.064,5.067 -25.482,10.449c-0.39,0.283 -0.013,0.938 0.383,0.652Z" style="fill:#e5750d;fill-rule:nonzero;"/><path d="M60.015,491.852c6.491,-6.525 11.294,-14.975 14.245,-23.616c0.158,-0.462 -0.573,-0.659 -0.73,-0.202c-2.902,8.499 -7.664,16.863 -14.05,23.285c-0.344,0.346 0.192,0.88 0.535,0.533Z" style="fill:#e5750d;fill-rule:nonzero;"/><path d="M66.656,518.254c6.364,-2.202 13.45,-2.813 20.109,-3.253c20.108,-1.331 40.377,1.856 59.777,6.931c0.5,0.13 0.712,-0.64 0.213,-0.77c-19.213,-5.025 -39.057,-8.025 -58.958,-7.019c-7.039,0.356 -14.636,1.017 -21.355,3.342c-0.484,0.167 -0.276,0.938 0.214,0.769Z" style="fill:#e5750d;fill-rule:nonzero;"/><path d="M119.859,516.06c0,0 5.877,13.215 1.01,18.289c-5.592,5.826 -14.385,-8.012 -7.641,-19.223l6.631,0.934Z" style="fill:#e5750d;fill-rule:nonzero;"/><path d="M139.555,519.203c0,0 17.453,-0.222 15.351,6.436c-2.331,7.388 -15.351,-6.436 -15.351,-6.436Z" style="fill:#e5750d;fill-rule:nonzero;"/><path d="M105.196,514.409c0,0 11.48,-12.128 8.41,-19.299c-3.529,-8.235 -19.364,4.764 -16.75,19.047l8.34,0.252Z" style="fill:#e5750d;fill-rule:nonzero;"/><path d="M130.106,517.761c0,0 12.898,-10.933 7.531,-13.343c-6.352,-2.852 -12.197,2.022 -11.292,12.913l3.761,0.43Z" style="fill:#e5750d;fill-rule:nonzero;"/><path d="M137.386,519.623c3.354,1.134 13.273,-2.083 12.598,-6.528c-0.537,-3.526 -4.028,-4.313 -6.927,-3.19c-3.654,1.412 -6.433,5.583 -8.249,8.842c0,0.001 2.575,0.875 2.578,0.876Z" style="fill:#e5750d;fill-rule:nonzero;"/><path d="M134.744,518.453c0.717,0.234 2.711,6.793 3.248,7.883c1.059,2.153 2.923,6.356 5.832,6.382c4.303,0.039 3.859,-4.091 2.551,-6.919c-1.476,-3.193 -4.407,-5.22 -7.748,-6.311c-0.002,0 -3.736,-0.793 -3.883,-1.035Z" style="fill:#e5750d;fill-rule:nonzero;"/><path d="M29.537,515.827c3.136,-7.033 4.482,-15.067 5.566,-22.615c3.062,-21.31 1.46,-43.129 -2.249,-64.244c-0.097,-0.549 -0.933,-0.316 -0.837,0.229c3.749,21.346 5.198,43.262 2.106,64.788c-1.024,7.123 -2.376,14.771 -5.335,21.406c-0.226,0.504 0.522,0.944 0.749,0.436Z" style="fill:#e5750d;fill-rule:nonzero;"/><path d="M35.951,458.405c0,0 -13.783,-7.519 -19.719,-2.741c-6.818,5.489 7.605,16.328 20.359,10.084l-0.64,-7.343Z" style="fill:#e5750d;fill-rule:nonzero;"/><path d="M36.814,475.353c0,0 13.775,-11.263 21.265,-7.309c8.601,4.542 -6.914,20.407 -22.149,16.298l0.884,-8.989Z" style="fill:#e5750d;fill-rule:nonzero;"/><path d="M34.816,442.324c-0.189,-0.796 -7.221,-3.683 -8.355,-4.361c-2.236,-1.335 -6.621,-3.722 -6.384,-6.855c0.346,-4.632 4.782,-3.782 7.725,-2.117c3.325,1.879 5.255,5.214 6.134,8.909c0.002,0.001 0.647,4.404 0.88,4.424Z" style="fill:#e5750d;fill-rule:nonzero;"/><path d="M33.68,439.225c-0.927,-3.713 3.457,-14.095 8.212,-12.966c3.771,0.895 4.307,4.723 2.828,7.741c-1.862,3.804 -6.632,6.417 -10.327,8.077c0,0 -0.712,-2.85 -0.713,-2.852Z" style="fill:#e5750d;fill-rule:nonzero;"/><path d="M35.036,447.225c0,0 13.012,-12.89 15.136,-6.896c2.514,7.094 -3.295,12.945 -15.009,10.984l-0.127,-4.088Z" style="fill:#e5750d;fill-rule:nonzero;"/><path d="M34.255,437.563c0,0 5.065,-18.159 -2.516,-17.808c-8.411,0.389 2.516,17.808 2.516,17.808Z" style="fill:#e5750d;fill-rule:nonzero;"/><path d="M73.028,471.398c0,0 14.336,-8.096 11.509,-11.128c-1.222,-1.31 -1.967,-0.456 -2.533,-0.873c-0.521,-0.385 1.416,-2.387 -0.561,-3.369c-1.555,-0.777 -1.935,1.262 -2.696,0.755c-0.335,-0.223 0.77,-1.04 -0.768,-1.846c-3.306,-1.725 -8.353,12.345 -4.951,16.461Z" style="fill:#a3421e;fill-rule:nonzero;"/><path d="M96.818,464.035c-0.056,-0.685 -0.384,-0.843 -0.779,-0.772c0.244,-0.35 0.238,-0.738 -0.368,-1.063c-0.399,-0.213 -0.668,-0.128 -0.853,0.094c-0.017,-0.531 -0.254,-0.906 -0.996,-0.698c-0.499,0.141 -0.667,0.422 -0.661,0.75c-0.304,-0.09 -0.617,-0.015 -0.879,0.367c-0.211,0.308 -0.203,0.544 -0.073,0.727c-0.246,0.076 -0.446,0.247 -0.548,0.582c-0.165,0.546 0.133,0.829 0.593,0.936c-0.214,0.302 -0.199,0.666 0.209,1.04c0.386,0.353 0.705,0.338 0.965,0.149c0.032,0.387 0.311,0.668 1.042,0.645c0.571,-0.019 0.802,-0.268 0.851,-0.604c0.235,0.055 0.521,-0.04 0.863,-0.383c0.325,-0.327 0.355,-0.597 0.229,-0.819c0.273,-0.131 0.447,-0.426 0.405,-0.951Zm-2.394,0.092c-0.003,-0.002 -0.005,-0.004 -0.008,-0.006c0.003,-0.007 0.005,-0.014 0.008,-0.022c0,0.013 0,0.018 0,0.028Z" style="fill:#a3421e;fill-rule:nonzero;"/><path d="M106.624,477.854c-0.054,-0.685 -0.383,-0.844 -0.778,-0.773c0.243,-0.349 0.237,-0.737 -0.369,-1.062c-0.398,-0.214 -0.666,-0.129 -0.852,0.093c-0.017,-0.53 -0.254,-0.905 -0.997,-0.696c-0.498,0.139 -0.665,0.42 -0.66,0.749c-0.304,-0.09 -0.616,-0.016 -0.879,0.367c-0.212,0.307 -0.204,0.543 -0.075,0.727c-0.244,0.075 -0.445,0.247 -0.546,0.581c-0.166,0.547 0.134,0.83 0.593,0.936c-0.215,0.304 -0.199,0.667 0.21,1.041c0.385,0.353 0.703,0.339 0.963,0.149c0.034,0.387 0.311,0.669 1.044,0.645c0.571,-0.019 0.801,-0.268 0.851,-0.605c0.234,0.056 0.52,-0.039 0.862,-0.381c0.325,-0.327 0.354,-0.598 0.229,-0.82c0.273,-0.131 0.446,-0.426 0.404,-0.951Zm-2.394,0.093c-0.002,-0.003 -0.005,-0.005 -0.007,-0.007c0.002,-0.006 0.005,-0.013 0.007,-0.021c0,0.012 0,0.018 0,0.028Z" style="fill:#a3421e;fill-rule:nonzero;"/><path d="M110.286,465.835c-0.097,-1.227 -0.686,-1.512 -1.395,-1.385c0.436,-0.627 0.425,-1.323 -0.662,-1.905c-0.714,-0.382 -1.197,-0.23 -1.529,0.17c-0.031,-0.953 -0.454,-1.626 -1.786,-1.253c-0.895,0.251 -1.196,0.756 -1.185,1.346c-0.545,-0.162 -1.105,-0.028 -1.577,0.657c-0.378,0.551 -0.365,0.973 -0.133,1.304c-0.44,0.133 -0.796,0.442 -0.979,1.041c-0.297,0.979 0.238,1.489 1.062,1.681c-0.383,0.542 -0.356,1.194 0.375,1.864c0.693,0.635 1.264,0.609 1.73,0.268c0.059,0.694 0.558,1.199 1.87,1.156c1.025,-0.033 1.439,-0.482 1.526,-1.086c0.421,0.1 0.935,-0.069 1.547,-0.684c0.578,-0.58 0.635,-1.061 0.418,-1.457c0.49,-0.236 0.793,-0.776 0.718,-1.717Zm-4.292,0.165c-0.005,-0.003 -0.01,-0.006 -0.016,-0.01c0.005,-0.013 0.01,-0.027 0.016,-0.041c0,0.021 0,0.032 0,0.051Z" style="fill:#a3421e;fill-rule:nonzero;"/><path d="M49.825,504.025c0,0 -1.965,38.431 -20.484,25.064c-14.661,-10.582 2.411,-23.61 20.484,-25.064Z" style="fill:#a3421e;fill-rule:nonzero;"/><path d="M50.748,503.784c0,0 24.415,29.772 1.485,32.231c-24.975,2.675 -8.786,-27.116 -1.485,-32.231Z" style="fill:#a3421e;fill-rule:nonzero;"/><path d="M71.662,533.335c2.128,-2.167 4.386,-3.409 5.04,-2.771c0.653,0.637 -0.544,2.914 -2.671,5.081c-2.128,2.167 -4.386,3.409 -5.04,2.771c-0.654,-0.637 0.543,-2.914 2.671,-5.081Z" style="fill:#a3421e;"/><path d="M88.581,517.209c-0.267,-2.967 0.242,-5.44 1.136,-5.52c0.893,-0.079 1.834,2.265 2.101,5.232c0.266,2.967 -0.243,5.441 -1.137,5.52c-0.893,0.08 -1.834,-2.264 -2.1,-5.232Z" style="fill:#a3421e;"/><path d="M49.518,510.001c0,0 -32.321,-25.086 -10.629,-33.968c23.379,-9.569 10.629,33.968 10.629,33.968Z" style="fill:#a3421e;fill-rule:nonzero;"/><path d="M51.946,501.542c0.114,0.036 -35.382,-7.898 -35.94,8.442c-0.671,19.668 35.929,1.846 35.94,-8.442Z" style="fill:#a3421e;fill-rule:nonzero;"/><path d="M49.491,505.197c0,0 -36.681,4.718 -29.44,-13.202c7.239,-17.922 31.853,7.229 29.44,13.202Z" style="fill:#a3421e;fill-rule:nonzero;"/><path d="M87.448,448.985c-0.726,-2.525 -0.684,-4.695 0.097,-4.845c0.777,-0.148 1.997,1.782 2.728,4.31c0.726,2.529 0.68,4.702 -0.095,4.849c-0.78,0.145 -2.001,-1.782 -2.73,-4.314Z" style="fill:#a3421e;fill-rule:nonzero;"/><path d="M118.159,484.784c2.137,-1.226 4.214,-1.671 4.639,-0.993c0.423,0.677 -0.967,2.223 -3.103,3.449c-2.139,1.225 -4.214,1.669 -4.636,0.995c-0.426,-0.682 0.963,-2.224 3.1,-3.451Z" style="fill:#a3421e;fill-rule:nonzero;"/><path d="M55.541,431.367c-2.438,-2.012 -3.875,-4.191 -3.202,-4.868c0.668,-0.672 3.193,0.416 5.638,2.427c2.44,2.017 3.876,4.201 3.207,4.872c-0.675,0.672 -3.196,-0.414 -5.643,-2.431Z" style="fill:#a3421e;fill-rule:nonzero;"/><path d="M65.071,437c0.858,-2.838 2.316,-4.93 3.258,-4.667c0.937,0.263 1.004,2.781 0.146,5.62c-0.86,2.842 -2.317,4.93 -3.253,4.668c-0.945,-0.264 -1.008,-2.779 -0.151,-5.621Z" style="fill:#a3421e;fill-rule:nonzero;"/><path d="M32.477,467.42c-2.156,2.31 -4.42,3.615 -5.06,2.907c-0.635,-0.705 0.601,-3.154 2.756,-5.472c2.159,-2.311 4.429,-3.616 5.063,-2.912c0.635,0.712 -0.598,3.159 -2.759,5.477Z" style="fill:#a3421e;fill-rule:nonzero;"/><path d="M32.101,453.096c-2.957,-0.339 -5.279,-1.397 -5.188,-2.367c0.094,-0.966 2.568,-1.478 5.524,-1.142c2.959,0.34 5.279,1.398 5.187,2.362c-0.095,0.974 -2.565,1.482 -5.523,1.147Z" style="fill:#a3421e;fill-rule:nonzero;"/><path d="M48.022,506.002c0,0 -9.614,-37.269 12.06,-30.01c17.159,5.747 4.758,23.254 -12.06,30.01Z" style="fill:#a3421e;fill-rule:nonzero;"/><path d="M48.838,501.71c0,0 39.555,10.623 23.02,27.197c-17.823,17.86 -23.02,-27.197 -23.02,-27.197Z" style="fill:#a3421e;fill-rule:nonzero;"/><path d="M46.362,507.796c0,0 37.024,0.244 31.783,-18.733c-5.239,-18.973 -34.847,8.91 -31.783,18.733Z" style="fill:#a3421e;fill-rule:nonzero;"/><path d="M50.265,504.783c0,0 33.602,-15.398 32.049,3.859c-1.552,19.258 -32.567,2.56 -32.049,-3.859Z" style="fill:#a3421e;fill-rule:nonzero;"/><path d="M72.492,471.943c0,0 17.438,4.934 13.444,0.222c-3.995,-4.709 3.489,-3.469 2.419,-5.34c-1.07,-1.872 -9.193,-2.559 -15.863,5.118Z" style="fill:#4e0003;fill-rule:nonzero;"/><path d="M29.341,529.089c-15.268,-10.879 4.035,-24.617 22.108,-26.071" style="fill:#4e0003;fill-rule:nonzero;"/><path d="M52.232,536.015c-24.974,2.675 -8.841,-27.976 -1.541,-33.092" style="fill:#4e0003;fill-rule:nonzero;"/><path d="M38.889,476.033c23.379,-9.569 10.629,33.968 10.629,33.968" style="fill:#4e0003;fill-rule:nonzero;"/><path d="M20.051,491.995c7.397,-18.236 31.76,7.434 29.061,13.71" style="fill:#4e0003;fill-rule:nonzero;"/><path d="M52.87,504.15c0,0 -37.654,-12.601 -36.864,7.097" style="fill:#4e0003;fill-rule:nonzero;"/><path d="M95.62,515.953c-3.799,-0.887 -6.665,-2.53 -6.398,-3.668c0.267,-1.138 3.568,-1.342 7.367,-0.456c3.798,0.887 6.665,2.53 6.398,3.668c-0.268,1.138 -3.568,1.342 -7.367,0.456Z" style="fill:#4e0003;"/><path d="M77.392,537.742c-1.776,-3.463 -2.37,-6.706 -1.326,-7.238c1.044,-0.532 3.333,1.848 5.109,5.311c1.776,3.463 2.371,6.706 1.327,7.238c-1.044,0.531 -3.334,-1.848 -5.11,-5.311Z" style="fill:#4e0003;"/><path d="M121.146,487.182c3.337,0.54 5.978,1.779 5.904,2.772c-0.075,0.994 -2.839,1.364 -6.176,0.826c-3.335,-0.538 -5.98,-1.782 -5.907,-2.778c0.074,-0.992 2.84,-1.361 6.179,-0.82Z" style="fill:#4e0003;fill-rule:nonzero;"/><path d="M91.646,447.307c1.84,-2.651 4.044,-4.315 4.926,-3.721c0.88,0.597 0.097,3.223 -1.745,5.872c-1.844,2.646 -4.05,4.312 -4.924,3.718c-0.884,-0.595 -0.102,-3.223 1.743,-5.869Z" style="fill:#4e0003;fill-rule:nonzero;"/><path d="M58.382,427.002c0.019,-3.873 1.07,-7.013 2.349,-7.02c1.278,-0.004 2.29,3.128 2.268,7.001c-0.027,3.87 -1.08,7.013 -2.351,7.015c-1.28,0.008 -2.295,-3.126 -2.266,-6.996Z" style="fill:#4e0003;fill-rule:nonzero;"/><path d="M69.684,436.671c3.389,-2.233 6.751,-3.27 7.515,-2.319c0.764,0.953 -1.361,3.535 -4.749,5.769c-3.387,2.231 -6.756,3.27 -7.523,2.316c-0.763,-0.949 1.364,-3.533 4.757,-5.766Z" style="fill:#4e0003;fill-rule:nonzero;"/><path d="M83.604,491.988c0,0 9.961,15.093 10.027,8.926c0.066,-6.169 4.915,-0.354 5.333,-2.465c0.418,-2.114 -5.28,-7.927 -15.36,-6.461Z" style="fill:#4e0003;fill-rule:nonzero;"/><path d="M83.469,492.479c0,0 -2.263,-17.885 1.81,-13.24c4.071,4.644 3.965,-2.916 5.659,-1.581c1.697,1.335 1.151,9.406 -7.469,14.821Z" style="fill:#4e0003;fill-rule:nonzero;"/><path d="M30.992,448.446c-2.808,-2.928 -4.429,-6.04 -3.625,-6.959c0.805,-0.919 3.731,0.708 6.539,3.633c2.806,2.926 4.43,6.046 3.624,6.968c-0.804,0.916 -3.731,-0.711 -6.538,-3.642Z" style="fill:#4e0003;fill-rule:nonzero;"/><path d="M28.265,464.314c-3.878,-0.242 -6.965,-1.469 -6.897,-2.742c0.069,-1.271 3.264,-2.099 7.141,-1.855c3.876,0.25 6.964,1.478 6.893,2.743c-0.066,1.274 -3.263,2.104 -7.137,1.854Z" style="fill:#4e0003;fill-rule:nonzero;"/><path d="M84.288,491.505c0,0 10.186,-12.909 12.77,-9.668c1.113,1.4 0.154,2.007 0.485,2.627c0.301,0.573 2.58,-1.034 3.258,1.062c0.534,1.648 -1.544,1.715 -1.156,2.542c0.17,0.364 1.148,-0.602 1.712,1.033c1.215,3.517 -13.498,6.374 -17.069,2.404Z" style="fill:#4e0003;fill-rule:nonzero;"/><path d="M60.082,475.992c18.08,5.993 3.509,24.697 -13.308,31.453" style="fill:#4e0003;fill-rule:nonzero;"/><path d="M71.858,528.907c-17.823,17.86 -23.02,-27.197 -23.02,-27.197" style="fill:#4e0003;fill-rule:nonzero;"/><path d="M82.314,508.642c-1.616,19.628 -32.357,1.962 -31.84,-4.456" style="fill:#4e0003;fill-rule:nonzero;"/><path d="M45.079,506.786c0,0 38.503,2.207 33.066,-17.723" style="fill:#4e0003;fill-rule:nonzero;"/><path d="M72.686,472.046c1.335,-2.166 3.794,-3.433 6.19,-2.11c0.17,0.094 0.321,-0.165 0.152,-0.258c-2.538,-1.402 -5.169,-0.108 -6.602,2.216c-0.101,0.166 0.159,0.316 0.26,0.152Z" style="fill:#fff;fill-rule:nonzero;"/><path d="M72.591,472.047c1.334,-2.383 1.177,-5.302 -1.29,-6.822c-0.166,-0.101 -0.316,0.157 -0.152,0.259c2.332,1.437 2.425,4.193 1.183,6.411c-0.094,0.169 0.164,0.32 0.259,0.152Z" style="fill:#fff;fill-rule:nonzero;"/><path d="M77.779,466.15c-0.185,0.076 -0.397,-0.012 -0.473,-0.196c-0.077,-0.184 0.011,-0.396 0.196,-0.472c0.184,-0.076 0.396,0.012 0.473,0.196c0.076,0.184 -0.011,0.396 -0.196,0.472Z" style="fill:#fff;"/><path d="M77.436,464.256c-0.185,0.076 -0.397,-0.011 -0.474,-0.195c-0.077,-0.183 0.01,-0.395 0.194,-0.472c0.184,-0.076 0.396,0.011 0.473,0.195c0.077,0.184 -0.009,0.395 -0.193,0.472Z" style="fill:#fff;"/><path d="M75.578,464.583c-0.185,0.076 -0.397,-0.011 -0.473,-0.195c-0.076,-0.184 0.011,-0.395 0.196,-0.471c0.184,-0.076 0.396,0.011 0.472,0.195c0.077,0.183 -0.011,0.394 -0.195,0.471Z" style="fill:#fff;"/><path d="M72.733,471.902c1.186,-2.132 2.371,-4.264 3.556,-6.394c0.095,-0.17 -0.165,-0.321 -0.259,-0.153c-1.185,2.132 -2.371,4.264 -3.556,6.395c-0.095,0.17 0.165,0.321 0.259,0.152Z" style="fill:#fff;fill-rule:nonzero;"/><path d="M94.333,464.315c-0.091,-0.085 -0.092,-0.232 -0.002,-0.326c0.09,-0.095 0.236,-0.103 0.327,-0.017c0.091,0.086 0.092,0.232 0.002,0.326c-0.09,0.095 -0.237,0.103 -0.327,0.017Z" style="fill:#fff;"/><path d="M104.139,478.134c-0.09,-0.085 -0.091,-0.232 -0.002,-0.326c0.09,-0.095 0.237,-0.102 0.327,-0.017c0.091,0.085 0.092,0.232 0.003,0.326c-0.09,0.095 -0.237,0.103 -0.328,0.017Z" style="fill:#fff;"/><path d="M105.829,465.326c-0.162,-0.153 -0.163,-0.415 -0.002,-0.585c0.161,-0.169 0.424,-0.182 0.586,-0.029c0.162,0.154 0.163,0.416 0.002,0.585c-0.161,0.169 -0.424,0.182 -0.586,0.029Z" style="fill:#fff;"/><path d="M83.689,492.027c2.503,-1.051 4.236,-3.451 3.213,-6.16c-0.068,-0.18 -0.358,-0.103 -0.289,0.078c0.962,2.549 -0.658,4.808 -3.005,5.793c-0.174,0.074 -0.098,0.364 0.081,0.289Z" style="fill:#fff;fill-rule:nonzero;"/><path d="M83.927,492.057c2.405,-0.899 5.138,-0.387 6.21,2.144c0.075,0.178 0.333,0.024 0.259,-0.151c-1.119,-2.644 -4.016,-3.228 -6.549,-2.282c-0.179,0.067 -0.101,0.357 0.08,0.289Z" style="fill:#fff;fill-rule:nonzero;"/><path d="M90.208,487.612c0.103,-0.17 0.326,-0.224 0.497,-0.121c0.171,0.102 0.226,0.324 0.123,0.494c-0.104,0.171 -0.326,0.225 -0.497,0.122c-0.171,-0.103 -0.226,-0.324 -0.123,-0.495Z" style="fill:#fff;"/><path d="M92.035,488.237c0.104,-0.17 0.327,-0.225 0.498,-0.122c0.171,0.104 0.226,0.326 0.123,0.496c-0.104,0.171 -0.327,0.226 -0.498,0.122c-0.171,-0.103 -0.226,-0.325 -0.123,-0.496Z" style="fill:#fff;"/><path d="M91.431,490.016c0.104,-0.17 0.328,-0.224 0.499,-0.12c0.171,0.103 0.226,0.326 0.122,0.496c-0.103,0.171 -0.327,0.225 -0.498,0.121c-0.172,-0.104 -0.227,-0.326 -0.123,-0.497Z" style="fill:#fff;"/><path d="M83.838,492.002c2.292,-0.848 4.585,-1.696 6.877,-2.544c0.18,-0.066 0.103,-0.355 -0.079,-0.288c-2.293,0.847 -4.585,1.695 -6.878,2.543c-0.18,0.066 -0.102,0.356 0.08,0.289Z" style="fill:#fff;fill-rule:nonzero;"/><path d="M53.535,504.411c0,2.378 -1.193,3.568 -3.579,3.568c-2.387,0 -3.58,-1.19 -3.58,-3.568c0,-2.379 1.193,-3.568 3.58,-3.568c2.386,0 3.579,1.189 3.579,3.568Z" style="fill:#fff;fill-rule:nonzero;"/><path d="M72.7,472.694c0,0 -13.474,-12.085 -7.347,-11.223c6.128,0.862 1.09,-4.79 3.248,-4.884c2.159,-0.095 7.069,6.394 4.099,16.107Z" style="fill:#4e0003;fill-rule:nonzero;"/><path d="M60.411,441.733c0,1.058 -0.862,1.917 -1.923,1.917c-1.062,0 -1.924,-0.859 -1.924,-1.917c0,-1.058 0.862,-1.917 1.924,-1.917c1.061,0 1.923,0.859 1.923,1.917Z" style="fill:#4e0003;"/><path d="M157.4,517.062c0,1.058 -0.862,1.917 -1.923,1.917c-1.061,0 -1.923,-0.859 -1.923,-1.917c0,-1.058 0.862,-1.917 1.923,-1.917c1.061,0 1.923,0.859 1.923,1.917Z" style="fill:#4e0003;"/><path d="M15.773,487.739c0,1.058 -0.862,1.917 -1.923,1.917c-1.062,0 -1.923,-0.859 -1.923,-1.917c0,-1.058 0.861,-1.917 1.923,-1.917c1.061,0 1.923,0.859 1.923,1.917Z" style="fill:#4e0003;"/><path d="M91.353,528.69c0,1.278 -0.641,1.918 -1.923,1.918c-1.283,0 -1.924,-0.64 -1.924,-1.918c0,-1.278 0.641,-1.917 1.924,-1.917c1.282,0 1.923,0.639 1.923,1.917Z" style="fill:#4e0003;fill-rule:nonzero;"/><path d="M85.427,525.151c0,0.589 -0.48,1.067 -1.071,1.067c-0.59,0 -1.07,-0.478 -1.07,-1.067c0,-0.589 0.48,-1.067 1.07,-1.067c0.591,0 1.071,0.478 1.071,1.067Z" style="fill:#4e0003;"/><path d="M64.067,447.294c0,0.711 -0.357,1.067 -1.07,1.067c-0.713,0 -1.07,-0.356 -1.07,-1.067c0,-0.711 0.357,-1.066 1.07,-1.066c0.713,0 1.07,0.355 1.07,1.066Z" style="fill:#4e0003;fill-rule:nonzero;"/><path d="M110.282,487.29c0,0.711 -0.357,1.067 -1.07,1.067c-0.713,0 -1.07,-0.356 -1.07,-1.067c0,-0.71 0.357,-1.066 1.07,-1.066c0.713,0 1.07,0.356 1.07,1.066Z" style="fill:#4e0003;fill-rule:nonzero;"/><path d="M91.513,456.396c0,0.711 -0.356,1.066 -1.069,1.066c-0.714,0 -1.07,-0.355 -1.07,-1.066c0,-0.711 0.356,-1.066 1.07,-1.066c0.713,0 1.069,0.355 1.069,1.066Z" style="fill:#4e0003;fill-rule:nonzero;"/><path d="M159.992,522.118c0,0.589 -0.48,1.067 -1.07,1.067c-0.591,0 -1.07,-0.478 -1.07,-1.067c0,-0.588 0.479,-1.067 1.07,-1.067c0.59,0 1.07,0.479 1.07,1.067Z" style="fill:#4e0003;"/><path d="M13.399,483.696c0,0.711 -0.357,1.067 -1.071,1.067c-0.713,0 -1.07,-0.356 -1.07,-1.067c0,-0.711 0.357,-1.067 1.07,-1.067c0.714,0 1.071,0.356 1.071,1.067Z" style="fill:#4e0003;fill-rule:nonzero;"/><path d="M41.297,421.511c0,0.589 -0.48,1.067 -1.07,1.067c-0.591,0 -1.071,-0.478 -1.071,-1.067c0,-0.589 0.48,-1.067 1.071,-1.067c0.59,0 1.07,0.478 1.07,1.067Z" style="fill:#4e0003;"/></g></g><g><clipPath id="_clip3"><rect x="258.875" y="29.5" width="148.75" height="123.375"/></clipPath><g clip-path="url(#_clip3)"><path d="M299.133,56.898c0,0 -9.777,9.912 -7.116,16.121c3.052,7.13 15.685,-3.306 13.42,-15.671l-6.304,-0.45Z" style="fill:#f9b01e;fill-rule:nonzero;"/><path d="M287.278,54.903c0,0 -6.89,-12.085 -2.715,-17.402c4.791,-6.106 14.304,7.218 8.922,18.587l-6.207,-1.185Z" style="fill:#f9b01e;fill-rule:nonzero;"/><path d="M313.594,58.121c0,0 -7.957,-13.959 -3.137,-20.101c5.535,-7.054 17.081,7.496 10.865,20.627l-7.728,-0.526Z" style="fill:#f9b01e;fill-rule:nonzero;"/><path d="M382.573,114.062c0,0 -11.624,9.623 -18.108,6.198c-7.446,-3.931 5.002,-16.579 18.192,-13.022l-0.084,6.824Z" style="fill:#f9b01e;fill-rule:nonzero;"/><path d="M383.661,127c0,0 12.469,8.509 18.605,4.499c7.049,-4.605 -6.523,-16.047 -19.326,-11.285l0.721,6.786Z" style="fill:#f9b01e;fill-rule:nonzero;"/><path d="M382.557,98.39c0,0 14.404,9.827 21.492,5.197c8.142,-5.317 -6.572,-19.059 -21.36,-13.56l-0.132,8.363Z" style="fill:#f9b01e;fill-rule:nonzero;"/><path d="M364.168,53.029c-5.673,-0.706 -11.251,-1.623 -17.155,-1.665c-8.418,-0.061 -17.419,1.722 -23.522,8.462c-5.405,5.968 -8.185,12.303 -12.378,19.348l0.056,0.119c5.675,0.705 11.253,1.623 17.151,1.664c8.427,0.059 17.421,-1.722 23.524,-8.461c5.406,-5.966 7.713,-13.114 12.38,-19.348" style="fill:#f9b01e;fill-rule:nonzero;"/><path d="M361.329,80.442c-4.98,2.33 -10.029,4.44 -14.718,7.407c-6.676,4.228 -12.483,10.201 -12.446,18.609c0.037,7.441 2.405,13.84 4.172,21.517l0.128,0.065c4.982,-2.327 10.035,-4.44 14.715,-7.406c6.682,-4.232 12.491,-10.204 12.446,-18.607c-0.032,-7.442 -3.355,-14.241 -4.168,-21.521" style="fill:#f9b01e;fill-rule:nonzero;"/><path d="M356.419,70.748c-7.383,5.357 -16.371,8.77 -25.301,10.375c-0.479,0.085 -0.275,0.812 0.202,0.726c8.966,-1.609 18.064,-5.067 25.482,-10.449c0.39,-0.283 0.013,-0.938 -0.383,-0.652Z" style="fill:#e5750d;fill-rule:nonzero;"/><path d="M358.86,80.773c-6.491,6.525 -11.294,14.975 -14.245,23.616c-0.158,0.462 0.573,0.659 0.73,0.202c2.902,-8.499 7.664,-16.863 14.05,-23.285c0.344,-0.346 -0.192,-0.88 -0.535,-0.533Z" style="fill:#e5750d;fill-rule:nonzero;"/><path d="M352.219,54.371c-6.364,2.202 -13.45,2.813 -20.109,3.253c-20.108,1.331 -40.377,-1.856 -59.777,-6.931c-0.5,-0.13 -0.712,0.64 -0.213,0.77c19.213,5.025 39.057,8.025 58.958,7.019c7.039,-0.356 14.636,-1.017 21.355,-3.342c0.484,-0.167 0.276,-0.938 -0.214,-0.769Z" style="fill:#e5750d;fill-rule:nonzero;"/><path d="M299.016,56.565c0,0 -5.877,-13.215 -1.01,-18.289c5.592,-5.826 14.385,8.012 7.641,19.223l-6.631,-0.934Z" style="fill:#e5750d;fill-rule:nonzero;"/><path d="M279.32,53.422c0,0 -17.453,0.222 -15.351,-6.436c2.331,-7.388 15.351,6.436 15.351,6.436Z" style="fill:#e5750d;fill-rule:nonzero;"/><path d="M313.679,58.216c0,0 -11.48,12.128 -8.41,19.299c3.529,8.235 19.364,-4.764 16.75,-19.047l-8.34,-0.252Z" style="fill:#e5750d;fill-rule:nonzero;"/><path d="M288.769,54.864c0,0 -12.898,10.933 -7.531,13.343c6.352,2.852 12.197,-2.022 11.292,-12.913l-3.761,-0.43Z" style="fill:#e5750d;fill-rule:nonzero;"/><path d="M281.489,53.002c-3.354,-1.134 -13.273,2.083 -12.598,6.528c0.537,3.526 4.028,4.313 6.927,3.19c3.654,-1.412 6.433,-5.583 8.249,-8.842c0,-0.001 -2.575,-0.875 -2.578,-0.876Z" style="fill:#e5750d;fill-rule:nonzero;"/><path d="M284.131,54.172c-0.717,-0.234 -2.711,-6.793 -3.248,-7.883c-1.059,-2.153 -2.923,-6.356 -5.832,-6.382c-4.303,-0.039 -3.859,4.091 -2.551,6.919c1.476,3.193 4.407,5.22 7.748,6.311c0.002,0 3.736,0.793 3.883,1.035Z" style="fill:#e5750d;fill-rule:nonzero;"/><path d="M389.338,56.798c-3.136,7.033 -4.482,15.067 -5.566,22.615c-3.062,21.31 -1.46,43.129 2.249,64.244c0.097,0.549 0.933,0.316 0.837,-0.229c-3.749,-21.346 -5.198,-43.262 -2.106,-64.788c1.024,-7.123 2.376,-14.771 5.335,-21.406c0.226,-0.504 -0.522,-0.944 -0.749,-0.436Z" style="fill:#e5750d;fill-rule:nonzero;"/><path d="M382.924,114.22c0,0 13.783,7.519 19.719,2.741c6.818,-5.489 -7.605,-16.328 -20.359,-10.084l0.64,7.343Z" style="fill:#e5750d;fill-rule:nonzero;"/><path d="M382.061,97.272c0,0 -13.775,11.263 -21.265,7.309c-8.601,-4.542 6.914,-20.407 22.149,-16.298l-0.884,8.989Z" style="fill:#e5750d;fill-rule:nonzero;"/><path d="M384.059,130.301c0.189,0.796 7.221,3.683 8.355,4.361c2.236,1.335 6.621,3.722 6.384,6.855c-0.346,4.632 -4.782,3.782 -7.725,2.117c-3.325,-1.879 -5.255,-5.214 -6.134,-8.909c-0.002,-0.001 -0.647,-4.404 -0.88,-4.424Z" style="fill:#e5750d;fill-rule:nonzero;"/><path d="M385.195,133.4c0.927,3.713 -3.457,14.095 -8.212,12.966c-3.771,-0.895 -4.307,-4.723 -2.828,-7.741c1.862,-3.804 6.632,-6.417 10.327,-8.077c0,0 0.712,2.85 0.713,2.852Z" style="fill:#e5750d;fill-rule:nonzero;"/><path d="M383.839,125.4c0,0 -13.012,12.89 -15.136,6.896c-2.514,-7.094 3.295,-12.945 15.009,-10.984l0.127,4.088Z" style="fill:#e5750d;fill-rule:nonzero;"/><path d="M384.62,135.062c0,0 -5.065,18.159 2.516,17.808c8.411,-0.389 -2.516,-17.808 -2.516,-17.808Z" style="fill:#e5750d;fill-rule:nonzero;"/><path d="M345.847,101.227c0,0 -14.336,8.096 -11.509,11.128c1.222,1.31 1.967,0.456 2.533,0.873c0.521,0.385 -1.416,2.387 0.561,3.369c1.555,0.777 1.935,-1.262 2.696,-0.755c0.335,0.223 -0.77,1.04 0.768,1.846c3.306,1.725 8.353,-12.345 4.951,-16.461Z" style="fill:#a3421e;fill-rule:nonzero;"/><path d="M322.057,108.59c0.056,0.685 0.384,0.843 0.779,0.772c-0.244,0.35 -0.238,0.738 0.368,1.063c0.399,0.213 0.668,0.128 0.853,-0.094c0.017,0.531 0.254,0.906 0.996,0.698c0.499,-0.141 0.667,-0.422 0.661,-0.75c0.304,0.09 0.617,0.015 0.879,-0.367c0.211,-0.308 0.203,-0.544 0.073,-0.727c0.246,-0.076 0.446,-0.247 0.548,-0.582c0.165,-0.546 -0.133,-0.829 -0.593,-0.936c0.214,-0.302 0.199,-0.666 -0.209,-1.04c-0.386,-0.353 -0.705,-0.338 -0.965,-0.149c-0.032,-0.387 -0.311,-0.668 -1.042,-0.645c-0.571,0.019 -0.802,0.268 -0.851,0.604c-0.235,-0.055 -0.521,0.04 -0.863,0.383c-0.325,0.327 -0.355,0.597 -0.229,0.819c-0.273,0.131 -0.447,0.426 -0.405,0.951Zm2.394,-0.092c0.003,0.002 0.005,0.004 0.008,0.006c-0.003,0.007 -0.005,0.014 -0.008,0.022c0,-0.013 0,-0.018 0,-0.028Z" style="fill:#a3421e;fill-rule:nonzero;"/><path d="M312.251,94.771c0.054,0.685 0.383,0.844 0.778,0.773c-0.243,0.349 -0.237,0.737 0.369,1.062c0.398,0.214 0.666,0.129 0.852,-0.093c0.017,0.53 0.254,0.905 0.997,0.696c0.498,-0.139 0.665,-0.42 0.66,-0.749c0.304,0.09 0.616,0.016 0.879,-0.367c0.212,-0.307 0.204,-0.543 0.075,-0.727c0.244,-0.075 0.445,-0.247 0.546,-0.581c0.166,-0.547 -0.134,-0.83 -0.593,-0.936c0.215,-0.304 0.199,-0.667 -0.21,-1.041c-0.385,-0.353 -0.703,-0.339 -0.963,-0.149c-0.034,-0.387 -0.311,-0.669 -1.044,-0.645c-0.571,0.019 -0.801,0.268 -0.851,0.605c-0.234,-0.056 -0.52,0.039 -0.862,0.381c-0.325,0.327 -0.354,0.598 -0.229,0.82c-0.273,0.131 -0.446,0.426 -0.404,0.951Zm2.394,-0.093c0.002,0.003 0.005,0.005 0.007,0.007c-0.002,0.006 -0.005,0.013 -0.007,0.021c0,-0.012 0,-0.018 0,-0.028Z" style="fill:#a3421e;fill-rule:nonzero;"/><path d="M308.589,106.79c0.097,1.227 0.686,1.512 1.395,1.385c-0.436,0.627 -0.425,1.323 0.662,1.905c0.714,0.382 1.197,0.23 1.529,-0.17c0.031,0.953 0.454,1.626 1.786,1.253c0.895,-0.251 1.196,-0.756 1.185,-1.346c0.545,0.162 1.105,0.028 1.577,-0.657c0.378,-0.551 0.365,-0.973 0.133,-1.304c0.44,-0.133 0.796,-0.442 0.979,-1.041c0.297,-0.979 -0.238,-1.489 -1.062,-1.681c0.383,-0.542 0.356,-1.194 -0.375,-1.864c-0.693,-0.635 -1.264,-0.609 -1.73,-0.268c-0.059,-0.694 -0.558,-1.199 -1.87,-1.156c-1.025,0.033 -1.439,0.482 -1.526,1.086c-0.421,-0.1 -0.935,0.069 -1.547,0.684c-0.578,0.58 -0.635,1.061 -0.418,1.457c-0.49,0.236 -0.793,0.776 -0.718,1.717Zm4.292,-0.165c0.005,0.003 0.01,0.006 0.016,0.01c-0.005,0.013 -0.01,0.027 -0.016,0.041c0,-0.021 0,-0.032 0,-0.051Z" style="fill:#a3421e;fill-rule:nonzero;"/><path d="M369.05,68.6c0,0 1.965,-38.431 20.484,-25.064c14.661,10.582 -2.411,23.61 -20.484,25.064Z" style="fill:#a3421e;fill-rule:nonzero;"/><path d="M368.127,68.841c0,0 -24.415,-29.772 -1.485,-32.231c24.975,-2.675 8.786,27.116 1.485,32.231Z" style="fill:#a3421e;fill-rule:nonzero;"/><path d="M347.213,39.29c-2.128,2.167 -4.386,3.409 -5.04,2.771c-0.653,-0.637 0.544,-2.914 2.671,-5.081c2.128,-2.167 4.386,-3.409 5.04,-2.771c0.654,0.637 -0.543,2.914 -2.671,5.081Z" style="fill:#a3421e;"/><path d="M330.294,55.416c0.267,2.967 -0.242,5.44 -1.136,5.52c-0.893,0.079 -1.834,-2.265 -2.101,-5.232c-0.266,-2.967 0.243,-5.441 1.137,-5.52c0.893,-0.08 1.834,2.264 2.1,5.232Z" style="fill:#a3421e;"/><path d="M369.357,62.624c0,0 32.321,25.086 10.629,33.968c-23.379,9.569 -10.629,-33.968 -10.629,-33.968Z" style="fill:#a3421e;fill-rule:nonzero;"/><path d="M366.929,71.083c-0.114,-0.036 35.382,7.898 35.94,-8.442c0.671,-19.668 -35.929,-1.846 -35.94,8.442Z" style="fill:#a3421e;fill-rule:nonzero;"/><path d="M369.384,67.428c0,0 36.681,-4.718 29.44,13.202c-7.239,17.922 -31.853,-7.229 -29.44,-13.202Z" style="fill:#a3421e;fill-rule:nonzero;"/><path d="M331.427,123.64c0.726,2.525 0.684,4.695 -0.097,4.845c-0.777,0.148 -1.997,-1.782 -2.728,-4.31c-0.726,-2.529 -0.68,-4.702 0.095,-4.849c0.78,-0.145 2.001,1.782 2.73,4.314Z" style="fill:#a3421e;fill-rule:nonzero;"/><path d="M300.716,87.841c-2.137,1.226 -4.214,1.671 -4.639,0.993c-0.423,-0.677 0.967,-2.223 3.103,-3.449c2.139,-1.225 4.214,-1.669 4.636,-0.995c0.426,0.682 -0.963,2.224 -3.1,3.451Z" style="fill:#a3421e;fill-rule:nonzero;"/><path d="M363.334,141.258c2.438,2.012 3.875,4.191 3.202,4.868c-0.668,0.672 -3.193,-0.416 -5.638,-2.427c-2.44,-2.017 -3.876,-4.201 -3.207,-4.872c0.675,-0.672 3.196,0.414 5.643,2.431Z" style="fill:#a3421e;fill-rule:nonzero;"/><path d="M353.804,135.625c-0.858,2.838 -2.316,4.93 -3.258,4.667c-0.937,-0.263 -1.004,-2.781 -0.146,-5.62c0.86,-2.842 2.318,-4.93 3.253,-4.668c0.945,0.264 1.008,2.779 0.151,5.621Z" style="fill:#a3421e;fill-rule:nonzero;"/><path d="M386.398,105.205c2.156,-2.31 4.42,-3.615 5.06,-2.907c0.635,0.705 -0.601,3.154 -2.756,5.472c-2.159,2.311 -4.429,3.616 -5.063,2.912c-0.635,-0.712 0.598,-3.159 2.759,-5.477Z" style="fill:#a3421e;fill-rule:nonzero;"/><path d="M386.774,119.529c2.957,0.339 5.279,1.397 5.188,2.367c-0.094,0.966 -2.568,1.478 -5.524,1.142c-2.959,-0.34 -5.279,-1.398 -5.187,-2.362c0.095,-0.974 2.565,-1.482 5.523,-1.147Z" style="fill:#a3421e;fill-rule:nonzero;"/><path d="M370.853,66.623c0,0 9.614,37.269 -12.06,30.01c-17.159,-5.747 -4.758,-23.254 12.06,-30.01Z" style="fill:#a3421e;fill-rule:nonzero;"/><path d="M370.037,70.915c0,0 -39.555,-10.623 -23.02,-27.197c17.823,-17.86 23.02,27.197 23.02,27.197Z" style="fill:#a3421e;fill-rule:nonzero;"/><path d="M372.513,64.829c0,0 -37.024,-0.244 -31.783,18.733c5.239,18.973 34.847,-8.91 31.783,-18.733Z" style="fill:#a3421e;fill-rule:nonzero;"/><path d="M368.61,67.842c0,0 -33.602,15.398 -32.049,-3.859c1.552,-19.258 32.567,-2.56 32.049,3.859Z" style="fill:#a3421e;fill-rule:nonzero;"/><path d="M346.383,100.682c0,0 -17.438,-4.934 -13.444,-0.222c3.995,4.709 -3.489,3.469 -2.418,5.34c1.069,1.872 9.192,2.559 15.862,-5.118Z" style="fill:#4e0003;fill-rule:nonzero;"/><path d="M389.534,43.536c15.268,10.879 -4.035,24.617 -22.108,26.071" style="fill:#4e0003;fill-rule:nonzero;"/><path d="M366.643,36.61c24.974,-2.675 8.841,27.976 1.541,33.092" style="fill:#4e0003;fill-rule:nonzero;"/><path d="M379.986,96.592c-23.379,9.569 -10.629,-33.968 -10.629,-33.968" style="fill:#4e0003;fill-rule:nonzero;"/><path d="M398.824,80.63c-7.397,18.236 -31.76,-7.434 -29.061,-13.71" style="fill:#4e0003;fill-rule:nonzero;"/><path d="M366.005,68.475c0,0 37.654,12.601 36.864,-7.097" style="fill:#4e0003;fill-rule:nonzero;"/><path d="M323.255,56.672c3.799,0.887 6.665,2.53 6.398,3.668c-0.267,1.138 -3.568,1.342 -7.367,0.456c-3.798,-0.887 -6.665,-2.53 -6.398,-3.668c0.268,-1.138 3.568,-1.342 7.367,-0.456Z" style="fill:#4e0003;"/><path d="M341.483,34.883c1.776,3.463 2.37,6.706 1.326,7.238c-1.044,0.532 -3.333,-1.848 -5.109,-5.311c-1.776,-3.463 -2.371,-6.706 -1.327,-7.238c1.044,-0.531 3.334,1.848 5.11,5.311Z" style="fill:#4e0003;"/><path d="M297.729,85.443c-3.337,-0.54 -5.978,-1.779 -5.904,-2.772c0.075,-0.994 2.839,-1.364 6.176,-0.826c3.335,0.538 5.98,1.782 5.907,2.778c-0.074,0.992 -2.84,1.361 -6.179,0.82Z" style="fill:#4e0003;fill-rule:nonzero;"/><path d="M327.229,125.318c-1.84,2.651 -4.044,4.315 -4.926,3.721c-0.88,-0.597 -0.097,-3.223 1.745,-5.872c1.844,-2.646 4.05,-4.312 4.924,-3.718c0.884,0.595 0.102,3.223 -1.743,5.869Z" style="fill:#4e0003;fill-rule:nonzero;"/><path d="M360.493,145.623c-0.019,3.873 -1.07,7.013 -2.349,7.02c-1.278,0.004 -2.29,-3.128 -2.268,-7.001c0.027,-3.87 1.08,-7.013 2.351,-7.015c1.28,-0.008 2.295,3.126 2.266,6.996Z" style="fill:#4e0003;fill-rule:nonzero;"/><path d="M349.191,135.954c-3.389,2.233 -6.751,3.27 -7.515,2.319c-0.764,-0.953 1.361,-3.535 4.749,-5.769c3.387,-2.231 6.756,-3.27 7.523,-2.316c0.763,0.949 -1.364,3.533 -4.757,5.766Z" style="fill:#4e0003;fill-rule:nonzero;"/><path d="M335.271,80.637c0,0 -9.961,-15.093 -10.027,-8.926c-0.066,6.169 -4.915,0.354 -5.333,2.465c-0.418,2.114 5.28,7.927 15.36,6.461Z" style="fill:#4e0003;fill-rule:nonzero;"/><path d="M335.406,80.146c0,0 2.264,17.885 -1.809,13.24c-4.072,-4.644 -3.966,2.916 -5.66,1.581c-1.697,-1.335 -1.151,-9.406 7.469,-14.821Z" style="fill:#4e0003;fill-rule:nonzero;"/><path d="M387.883,124.179c2.808,2.928 4.429,6.04 3.625,6.959c-0.805,0.919 -3.731,-0.708 -6.539,-3.633c-2.806,-2.926 -4.43,-6.046 -3.624,-6.968c0.804,-0.916 3.731,0.711 6.538,3.642Z" style="fill:#4e0003;fill-rule:nonzero;"/><path d="M390.61,108.311c3.878,0.242 6.965,1.469 6.897,2.742c-0.069,1.271 -3.264,2.099 -7.141,1.855c-3.876,-0.25 -6.964,-1.478 -6.893,-2.743c0.066,-1.274 3.263,-2.104 7.137,-1.854Z" style="fill:#4e0003;fill-rule:nonzero;"/><path d="M334.587,81.12c0,0 -10.186,12.909 -12.77,9.668c-1.113,-1.4 -0.154,-2.007 -0.485,-2.627c-0.301,-0.573 -2.58,1.034 -3.258,-1.062c-0.534,-1.648 1.544,-1.715 1.156,-2.542c-0.17,-0.364 -1.148,0.602 -1.712,-1.033c-1.215,-3.517 13.498,-6.374 17.069,-2.404Z" style="fill:#4e0003;fill-rule:nonzero;"/><path d="M358.793,96.633c-18.08,-5.993 -3.509,-24.697 13.308,-31.453" style="fill:#4e0003;fill-rule:nonzero;"/><path d="M347.017,43.718c17.823,-17.86 23.02,27.197 23.02,27.197" style="fill:#4e0003;fill-rule:nonzero;"/><path d="M336.561,63.983c1.616,-19.628 32.357,-1.962 31.84,4.456" style="fill:#4e0003;fill-rule:nonzero;"/><path d="M373.796,65.839c0,0 -38.503,-2.207 -33.066,17.723" style="fill:#4e0003;fill-rule:nonzero;"/><path d="M346.189,100.579c-1.335,2.166 -3.794,3.433 -6.19,2.11c-0.17,-0.094 -0.321,0.165 -0.152,0.258c2.538,1.402 5.169,0.108 6.602,-2.216c0.101,-0.166 -0.159,-0.316 -0.26,-0.152Z" style="fill:#fff;fill-rule:nonzero;"/><path d="M346.284,100.578c-1.334,2.383 -1.177,5.302 1.29,6.822c0.166,0.101 0.316,-0.157 0.152,-0.259c-2.332,-1.437 -2.425,-4.193 -1.183,-6.411c0.094,-0.169 -0.164,-0.32 -0.259,-0.152Z" style="fill:#fff;fill-rule:nonzero;"/><path d="M341.096,106.475c0.185,-0.076 0.397,0.012 0.473,0.196c0.077,0.184 -0.011,0.396 -0.196,0.472c-0.184,0.076 -0.396,-0.012 -0.473,-0.196c-0.076,-0.184 0.011,-0.396 0.196,-0.472Z" style="fill:#fff;"/><path d="M341.439,108.369c0.185,-0.076 0.397,0.011 0.474,0.195c0.077,0.183 -0.01,0.395 -0.194,0.472c-0.184,0.076 -0.396,-0.011 -0.473,-0.195c-0.077,-0.184 0.009,-0.395 0.193,-0.472Z" style="fill:#fff;"/><path d="M343.297,108.042c0.185,-0.076 0.397,0.011 0.473,0.195c0.076,0.184 -0.011,0.395 -0.196,0.471c-0.184,0.076 -0.396,-0.011 -0.472,-0.195c-0.077,-0.183 0.011,-0.394 0.195,-0.471Z" style="fill:#fff;"/><path d="M346.142,100.723c-1.186,2.132 -2.371,4.264 -3.556,6.394c-0.095,0.17 0.165,0.321 0.259,0.153c1.185,-2.132 2.371,-4.264 3.556,-6.395c0.095,-0.17 -0.165,-0.321 -0.259,-0.152Z" style="fill:#fff;fill-rule:nonzero;"/><path d="M324.542,108.31c0.091,0.085 0.092,0.232 0.002,0.326c-0.09,0.095 -0.236,0.103 -0.327,0.017c-0.091,-0.086 -0.092,-0.232 -0.002,-0.326c0.09,-0.095 0.237,-0.103 0.327,-0.017Z" style="fill:#fff;"/><path d="M314.736,94.491c0.09,0.085 0.091,0.232 0.002,0.326c-0.09,0.095 -0.237,0.102 -0.327,0.017c-0.091,-0.085 -0.092,-0.232 -0.003,-0.326c0.09,-0.095 0.237,-0.103 0.328,-0.017Z" style="fill:#fff;"/><path d="M313.046,107.299c0.162,0.153 0.163,0.415 0.002,0.585c-0.161,0.169 -0.424,0.182 -0.586,0.029c-0.162,-0.154 -0.163,-0.416 -0.002,-0.585c0.161,-0.169 0.424,-0.182 0.586,-0.029Z" style="fill:#fff;"/><path d="M335.186,80.598c-2.503,1.051 -4.236,3.451 -3.213,6.16c0.068,0.18 0.358,0.103 0.289,-0.078c-0.962,-2.549 0.658,-4.808 3.005,-5.793c0.174,-0.074 0.098,-0.364 -0.081,-0.289Z" style="fill:#fff;fill-rule:nonzero;"/><path d="M334.948,80.568c-2.405,0.899 -5.138,0.387 -6.21,-2.144c-0.075,-0.178 -0.333,-0.024 -0.259,0.151c1.119,2.644 4.016,3.228 6.549,2.282c0.179,-0.067 0.101,-0.357 -0.08,-0.289Z" style="fill:#fff;fill-rule:nonzero;"/><path d="M328.667,85.013c-0.103,0.17 -0.326,0.224 -0.497,0.121c-0.171,-0.102 -0.226,-0.324 -0.123,-0.494c0.104,-0.171 0.326,-0.225 0.497,-0.122c0.171,0.103 0.226,0.324 0.123,0.495Z" style="fill:#fff;"/><path d="M326.84,84.388c-0.104,0.17 -0.327,0.225 -0.498,0.122c-0.171,-0.104 -0.226,-0.326 -0.123,-0.496c0.104,-0.171 0.327,-0.226 0.498,-0.122c0.171,0.103 0.226,0.325 0.123,0.496Z" style="fill:#fff;"/><path d="M327.444,82.609c-0.104,0.17 -0.328,0.224 -0.499,0.12c-0.171,-0.103 -0.226,-0.326 -0.122,-0.496c0.104,-0.171 0.327,-0.225 0.498,-0.121c0.172,0.104 0.227,0.326 0.123,0.497Z" style="fill:#fff;"/><path d="M335.037,80.623c-2.292,0.848 -4.585,1.696 -6.877,2.544c-0.18,0.066 -0.103,0.355 0.079,0.288c2.293,-0.847 4.585,-1.695 6.878,-2.543c0.18,-0.066 0.102,-0.356 -0.08,-0.289Z" style="fill:#fff;fill-rule:nonzero;"/><path d="M365.34,68.214c0,-2.378 1.193,-3.568 3.579,-3.568c2.387,0 3.58,1.19 3.58,3.568c0,2.379 -1.193,3.568 -3.58,3.568c-2.386,0 -3.579,-1.189 -3.579,-3.568Z" style="fill:#fff;fill-rule:nonzero;"/><path d="M346.175,99.931c0,0 13.474,12.085 7.347,11.223c-6.128,-0.862 -1.09,4.79 -3.248,4.884c-2.159,0.095 -7.069,-6.394 -4.099,-16.107Z" style="fill:#4e0003;fill-rule:nonzero;"/><path d="M358.464,130.892c0,-1.058 0.862,-1.917 1.923,-1.917c1.062,0 1.924,0.859 1.924,1.917c0,1.058 -0.862,1.917 -1.924,1.917c-1.061,0 -1.923,-0.859 -1.923,-1.917Z" style="fill:#4e0003;"/><path d="M261.475,55.563c0,-1.058 0.862,-1.917 1.923,-1.917c1.062,0 1.923,0.859 1.923,1.917c0,1.058 -0.861,1.917 -1.923,1.917c-1.061,0 -1.923,-0.859 -1.923,-1.917Z" style="fill:#4e0003;"/><path d="M403.102,84.886c0,-1.058 0.862,-1.917 1.923,-1.917c1.062,0 1.923,0.859 1.923,1.917c0,1.058 -0.861,1.917 -1.923,1.917c-1.061,0 -1.923,-0.859 -1.923,-1.917Z" style="fill:#4e0003;"/><path d="M327.522,43.935c0,-1.278 0.641,-1.918 1.923,-1.918c1.283,0 1.924,0.64 1.924,1.918c0,1.278 -0.641,1.917 -1.924,1.917c-1.282,0 -1.923,-0.639 -1.923,-1.917Z" style="fill:#4e0003;fill-rule:nonzero;"/><path d="M333.448,47.474c0,-0.589 0.48,-1.067 1.071,-1.067c0.59,0 1.07,0.478 1.07,1.067c0,0.589 -0.48,1.067 -1.07,1.067c-0.591,0 -1.071,-0.478 -1.071,-1.067Z" style="fill:#4e0003;"/><path d="M354.808,125.331c0,-0.711 0.357,-1.067 1.07,-1.067c0.713,0 1.07,0.356 1.07,1.067c0,0.711 -0.357,1.066 -1.07,1.066c-0.713,0 -1.07,-0.355 -1.07,-1.066Z" style="fill:#4e0003;fill-rule:nonzero;"/><path d="M308.593,85.335c0,-0.711 0.357,-1.067 1.07,-1.067c0.713,0 1.07,0.356 1.07,1.067c0,0.71 -0.357,1.066 -1.07,1.066c-0.713,0 -1.07,-0.356 -1.07,-1.066Z" style="fill:#4e0003;fill-rule:nonzero;"/><path d="M327.362,116.229c0,-0.711 0.356,-1.066 1.069,-1.066c0.714,0 1.07,0.355 1.07,1.066c0,0.711 -0.356,1.066 -1.07,1.066c-0.713,0 -1.069,-0.355 -1.069,-1.066Z" style="fill:#4e0003;fill-rule:nonzero;"/><path d="M258.883,50.507c0,-0.589 0.48,-1.067 1.07,-1.067c0.591,0 1.07,0.478 1.07,1.067c0,0.588 -0.479,1.067 -1.07,1.067c-0.59,0 -1.07,-0.479 -1.07,-1.067Z" style="fill:#4e0003;"/><path d="M405.476,88.929c0,-0.711 0.357,-1.067 1.071,-1.067c0.713,0 1.07,0.356 1.07,1.067c0,0.711 -0.357,1.067 -1.07,1.067c-0.714,0 -1.071,-0.356 -1.071,-1.067Z" style="fill:#4e0003;fill-rule:nonzero;"/><path d="M377.578,151.114c0,-0.589 0.48,-1.067 1.07,-1.067c0.591,0 1.071,0.478 1.071,1.067c0,0.589 -0.48,1.067 -1.071,1.067c-0.59,0 -1.07,-0.478 -1.07,-1.067Z" style="fill:#4e0003;"/></g></g><g><clipPath id="_clip4"><rect x="268.5" y="420.625" width="145.25" height="120.75"/></clipPath><g clip-path="url(#_clip4)"><path d="M313.976,514.134c2.214,-12.107 -10.137,-22.322 -13.108,-15.337c-2.593,6.082 6.962,15.774 6.962,15.774l6.146,-0.437Z" style="fill:#f9b01e;fill-rule:nonzero;"/><path d="M302.295,515.357c5.243,11.117 -4.02,24.155 -8.71,18.189c-4.078,-5.209 2.651,-17.025 2.651,-17.025l6.059,-1.164Z" style="fill:#f9b01e;fill-rule:nonzero;"/><path d="M329.473,512.854c6.059,12.863 -5.214,27.095 -10.603,20.197c-4.719,-6.024 3.058,-19.673 3.058,-19.673l7.545,-0.524Z" style="fill:#f9b01e;fill-rule:nonzero;"/><path d="M389.364,465.299c-12.875,3.492 -25.023,-8.906 -17.769,-12.748c6.321,-3.346 17.681,6.054 17.681,6.054l0.088,6.694Z" style="fill:#f9b01e;fill-rule:nonzero;"/><path d="M389.626,452.581c12.497,4.656 25.751,-6.549 18.876,-11.06c-5.971,-3.9 -18.148,4.424 -18.148,4.424l-0.728,6.636Z" style="fill:#f9b01e;fill-rule:nonzero;"/><path d="M389.393,482.15c14.448,5.384 28.809,-8.062 20.857,-13.272c-6.933,-4.54 -20.974,5.094 -20.974,5.094l0.117,8.178Z" style="fill:#f9b01e;fill-rule:nonzero;"/><path d="M371.362,518.238c-4.545,-6.112 -6.817,-13.097 -12.089,-18.947c-5.972,-6.606 -14.74,-8.352 -22.984,-8.294c-5.767,0.029 -11.214,0.931 -16.749,1.63l-0.058,0.116c4.107,6.898 6.816,13.097 12.088,18.947c5.972,6.606 14.74,8.352 22.955,8.294c5.767,-0.029 11.215,-0.931 16.749,-1.63" style="fill:#f9b01e;fill-rule:nonzero;"/><path d="M368.653,491.463c0.786,-7.131 4.049,-13.795 4.078,-21.071c0.029,-8.236 -5.622,-14.057 -12.147,-18.219c-4.574,-2.91 -9.497,-4.977 -14.361,-7.247l-0.117,0.059c-1.718,7.508 -4.049,13.765 -4.078,21.07c-0.029,8.237 5.622,14.086 12.147,18.219c4.574,2.91 9.496,4.977 14.361,7.247" style="fill:#f9b01e;fill-rule:nonzero;"/><path d="M363.73,501.009c0.378,0.291 0.757,-0.35 0.378,-0.641c-7.253,-5.267 -16.138,-8.643 -24.876,-10.215c-0.467,-0.087 -0.67,0.64 -0.204,0.699c8.739,1.571 17.507,4.918 24.702,10.157Z" style="fill:#e5750d;fill-rule:nonzero;"/><path d="M366.118,491.201c0.35,0.349 0.845,-0.175 0.525,-0.524c-6.234,-6.286 -10.895,-14.465 -13.72,-22.788c-0.146,-0.437 -0.874,-0.262 -0.7,0.204c2.884,8.44 7.574,16.705 13.895,23.108Z" style="fill:#e5750d;fill-rule:nonzero;"/><path d="M359.652,517.045c0.466,0.174 0.67,-0.583 0.203,-0.757c-6.554,-2.27 -13.982,-2.91 -20.856,-3.26c-19.43,-0.989 -38.801,1.95 -57.561,6.869c-0.495,0.116 -0.291,0.873 0.204,0.756c18.934,-4.976 38.743,-8.09 58.376,-6.781c6.496,0.408 13.4,1.019 19.634,3.173Z" style="fill:#e5750d;fill-rule:nonzero;"/><path d="M314.18,513.989c6.583,10.972 -2.01,24.505 -7.457,18.83c-4.748,-4.977 0.99,-17.899 0.99,-17.899l6.467,-0.931Z" style="fill:#e5750d;fill-rule:nonzero;"/><path d="M273.457,524.262c-2.04,-6.519 15.001,-6.286 15.001,-6.286c0,0 -12.7,13.533 -15.001,6.286Z" style="fill:#e5750d;fill-rule:nonzero;"/><path d="M330.143,513.028c2.563,-13.969 -12.904,-26.717 -16.342,-18.655c-3,7.014 8.215,18.888 8.215,18.888l8.127,-0.233Z" style="fill:#e5750d;fill-rule:nonzero;"/><path d="M301.363,516.142c0.874,-10.651 -4.836,-15.424 -11.04,-12.631c-5.244,2.358 7.34,13.068 7.34,13.068l3.7,-0.437Z" style="fill:#e5750d;fill-rule:nonzero;"/><path d="M293.09,517.51c-1.777,-3.201 -4.486,-7.276 -8.069,-8.643c-2.826,-1.106 -6.234,-0.321 -6.758,3.114c-0.67,4.365 9.03,7.508 12.293,6.402c0.029,0 2.534,-0.844 2.534,-0.873Z" style="fill:#e5750d;fill-rule:nonzero;"/><path d="M289.361,518.238c-3.262,1.077 -6.117,3.056 -7.573,6.17c-1.282,2.765 -1.719,6.81 2.505,6.781c2.855,-0.029 4.661,-4.133 5.709,-6.257c0.525,-1.077 2.476,-7.48 3.175,-7.713c-0.174,0.262 -3.816,1.019 -3.816,1.019Z" style="fill:#e5750d;fill-rule:nonzero;"/><path d="M395.889,514.658c0.233,0.495 0.961,0.058 0.728,-0.436c-2.884,-6.491 -4.224,-13.97 -5.214,-20.955c-3.03,-21.071 -1.602,-42.52 2.068,-63.416c0.088,-0.524 -0.728,-0.757 -0.815,-0.233c-3.613,20.663 -5.186,42.025 -2.185,62.892c1.048,7.422 2.359,15.28 5.418,22.148Z" style="fill:#e5750d;fill-rule:nonzero;"/><path d="M388.985,465.648c12.468,6.112 26.537,-4.511 19.867,-9.866c-5.797,-4.686 -19.255,2.677 -19.255,2.677l-0.612,7.189Z" style="fill:#e5750d;fill-rule:nonzero;"/><path d="M389.655,483.838c-14.885,4.016 -30.033,-11.496 -21.614,-15.949c7.311,-3.871 20.769,7.159 20.769,7.159l0.845,8.79Z" style="fill:#e5750d;fill-rule:nonzero;"/><path d="M391.578,438.378c0.845,-3.609 2.738,-6.868 6,-8.731c2.884,-1.63 7.196,-2.474 7.545,2.066c0.233,3.056 -4.049,5.414 -6.234,6.723c-1.107,0.67 -7.981,3.493 -8.156,4.278c0.233,0 0.845,-4.336 0.845,-4.336Z" style="fill:#e5750d;fill-rule:nonzero;"/><path d="M391.141,442.482c-3.612,-1.63 -8.273,-4.191 -10.079,-7.916c-1.457,-2.94 -0.932,-6.694 2.767,-7.567c4.632,-1.106 8.914,9.051 8.011,12.689l-0.699,2.794Z" style="fill:#e5750d;fill-rule:nonzero;"/><path d="M390.383,451.533c-11.448,1.921 -17.099,-3.813 -14.652,-10.739c2.068,-5.879 14.769,6.752 14.769,6.752l-0.117,3.987Z" style="fill:#e5750d;fill-rule:nonzero;"/><path d="M393.733,420.625c-7.399,-0.349 -2.447,17.433 -2.447,17.433c0,0 10.662,-17.055 2.447,-17.433Z" style="fill:#e5750d;fill-rule:nonzero;"/><path d="M348.582,455.054c-1.515,0.786 -0.437,1.601 -0.757,1.805c-0.758,0.494 -1.107,-1.514 -2.622,-0.728c-1.922,0.961 -0.029,2.91 -0.553,3.289c-0.554,0.407 -1.282,-0.437 -2.476,0.844c-2.768,2.968 11.244,10.885 11.244,10.885c3.321,-3.988 -1.602,-17.783 -4.836,-16.095Z" style="fill:#a3421e;fill-rule:nonzero;"/><path d="M330.58,464.891c-0.116,0.204 -0.087,0.495 0.233,0.815c0.32,0.349 0.612,0.437 0.845,0.379c0.058,0.32 0.262,0.582 0.845,0.582c0.728,0.029 0.99,-0.262 1.019,-0.641c0.262,0.175 0.554,0.204 0.932,-0.145c0.408,-0.379 0.408,-0.728 0.204,-1.019c0.437,-0.116 0.728,-0.378 0.583,-0.902c-0.088,-0.32 -0.292,-0.495 -0.525,-0.582c0.117,-0.175 0.146,-0.408 -0.058,-0.699c-0.262,-0.378 -0.553,-0.436 -0.845,-0.349c0,-0.32 -0.145,-0.611 -0.64,-0.727c-0.729,-0.204 -0.962,0.174 -0.962,0.669c-0.174,-0.204 -0.437,-0.291 -0.844,-0.087c-0.583,0.32 -0.612,0.698 -0.35,1.047c-0.379,-0.058 -0.699,0.088 -0.757,0.757c-0.117,0.495 0.058,0.786 0.32,0.902Z" style="fill:#a3421e;fill-rule:nonzero;"/><path d="M320.996,478.424c-0.116,0.204 -0.087,0.495 0.233,0.815c0.321,0.349 0.612,0.437 0.845,0.379c0.058,0.32 0.262,0.582 0.845,0.582c0.728,0.029 0.99,-0.262 1.019,-0.641c0.263,0.175 0.554,0.204 0.933,-0.145c0.407,-0.378 0.407,-0.728 0.203,-1.019c0.437,-0.116 0.729,-0.378 0.583,-0.902c-0.087,-0.32 -0.291,-0.495 -0.524,-0.582c0.116,-0.175 0.145,-0.407 -0.059,-0.698c-0.262,-0.379 -0.553,-0.437 -0.844,-0.35c0,-0.32 -0.146,-0.611 -0.641,-0.727c-0.728,-0.204 -0.961,0.174 -0.961,0.669c-0.175,-0.204 -0.437,-0.291 -0.845,-0.087c-0.583,0.32 -0.612,0.698 -0.35,1.047c-0.378,-0.058 -0.699,0.088 -0.757,0.757c-0.087,0.495 0.058,0.786 0.32,0.902Zm1.952,-0.873c0,0.029 0,0.029 0,0c0,0.029 0,0.029 0,0c0,0.029 0,0.029 0,0Z" style="fill:#a3421e;fill-rule:nonzero;"/><path d="M317.734,467.423c-0.204,0.379 -0.146,0.844 0.408,1.426c0.611,0.612 1.107,0.757 1.514,0.67c0.088,0.582 0.496,1.018 1.486,1.077c1.282,0.029 1.777,-0.466 1.835,-1.135c0.466,0.32 1.02,0.349 1.69,-0.262c0.728,-0.67 0.728,-1.281 0.378,-1.834c0.816,-0.175 1.34,-0.698 1.049,-1.659c-0.175,-0.582 -0.524,-0.902 -0.961,-1.018c0.233,-0.321 0.233,-0.728 -0.117,-1.281c-0.466,-0.669 -1.019,-0.815 -1.544,-0.64c0,-0.582 -0.291,-1.077 -1.165,-1.31c-1.311,-0.378 -1.718,0.291 -1.748,1.222c-0.32,-0.378 -0.786,-0.553 -1.485,-0.174c-1.049,0.582 -1.078,1.251 -0.641,1.862c-0.699,-0.116 -1.282,0.146 -1.369,1.368c-0.088,0.932 0.204,1.455 0.67,1.688Zm3.495,-1.571c0,0 0,0.029 0.03,0.029l-0.03,0l0,-0.029Z" style="fill:#a3421e;fill-rule:nonzero;"/><path d="M396.064,527.638c-18.09,13.097 -20.012,-24.534 -20.012,-24.534c17.681,1.426 34.344,14.173 20.012,24.534Z" style="fill:#a3421e;fill-rule:nonzero;"/><path d="M373.721,534.419c-22.401,-2.415 1.457,-31.548 1.457,-31.548c7.136,5.006 22.925,34.168 -1.457,31.548Z" style="fill:#a3421e;fill-rule:nonzero;"/><path d="M349.835,529.093c-0.641,0.612 0.524,2.853 2.621,4.977c2.098,2.125 4.283,3.318 4.923,2.707c0.641,-0.641 -0.524,-2.852 -2.621,-4.977c-2.098,-2.125 -4.282,-3.318 -4.923,-2.707Z" style="fill:#a3421e;fill-rule:nonzero;"/><path d="M337.134,510.613c-0.874,-0.088 -1.777,2.212 -2.039,5.122c-0.262,2.91 0.233,5.326 1.107,5.413c0.874,0.087 1.777,-2.212 2.039,-5.122c0.262,-2.91 -0.233,-5.326 -1.107,-5.413Z" style="fill:#a3421e;fill-rule:nonzero;"/><path d="M386.742,475.718c21.178,8.702 -10.37,33.236 -10.37,33.236c0,0 -12.438,-42.608 10.37,-33.236Z" style="fill:#a3421e;fill-rule:nonzero;"/><path d="M409.085,508.954c-0.554,-16.007 -35.218,-8.236 -35.102,-8.266c0.029,10.07 35.772,27.503 35.102,8.266Z" style="fill:#a3421e;fill-rule:nonzero;"/><path d="M405.152,491.346c7.079,17.55 -28.751,12.922 -28.751,12.922c-2.359,-5.85 21.673,-30.471 28.751,-12.922Z" style="fill:#a3421e;fill-rule:nonzero;"/><path d="M336.668,453.454c-0.757,-0.146 -0.815,-2.27 -0.087,-4.744c0.728,-2.474 1.893,-4.366 2.651,-4.22c0.757,0.145 0.815,2.27 0.087,4.744c-0.699,2.473 -1.893,4.365 -2.651,4.22Z" style="fill:#a3421e;fill-rule:nonzero;"/><path d="M312.374,487.65c-0.408,0.67 -2.447,0.233 -4.515,-0.96c-2.098,-1.194 -3.438,-2.707 -3.03,-3.376c0.408,-0.67 2.447,-0.233 4.515,0.96c2.098,1.222 3.438,2.707 3.03,3.376Z" style="fill:#a3421e;fill-rule:nonzero;"/><path d="M364.982,434.362c-0.641,-0.67 0.758,-2.794 3.146,-4.773c2.389,-1.979 4.865,-3.027 5.506,-2.387c0.67,0.67 -0.758,2.794 -3.117,4.773c-2.418,2.008 -4.865,3.056 -5.535,2.387Z" style="fill:#a3421e;fill-rule:nonzero;"/><path d="M361.05,443.006c-0.903,0.261 -2.331,-1.776 -3.175,-4.57c-0.845,-2.794 -0.787,-5.238 0.145,-5.5c0.932,-0.262 2.331,1.804 3.175,4.569c0.845,2.794 0.758,5.239 -0.145,5.501Z" style="fill:#a3421e;fill-rule:nonzero;"/><path d="M390.325,461.923c0.612,-0.699 2.826,0.582 4.952,2.852c2.098,2.27 3.321,4.656 2.68,5.355c-0.612,0.698 -2.825,-0.582 -4.952,-2.852c-2.097,-2.27 -3.292,-4.657 -2.68,-5.355Z" style="fill:#a3421e;fill-rule:nonzero;"/><path d="M387.995,452.144c-0.088,-0.931 2.185,-1.979 5.068,-2.299c2.884,-0.32 5.302,0.174 5.389,1.106c0.088,0.96 -2.184,1.979 -5.068,2.328c-2.884,0.32 -5.302,-0.175 -5.389,-1.135Z" style="fill:#a3421e;fill-rule:nonzero;"/><path d="M366.06,475.689c21.177,-7.102 11.768,29.365 11.768,29.365c-16.4,-6.607 -28.518,-23.748 -11.768,-29.365Z" style="fill:#a3421e;fill-rule:nonzero;"/><path d="M354.554,527.464c-16.138,-16.211 22.488,-26.63 22.488,-26.63c0,0 -5.069,44.121 -22.488,26.63Z" style="fill:#a3421e;fill-rule:nonzero;"/><path d="M348.437,488.465c-5.127,18.568 31.023,18.335 31.023,18.335c3,-9.604 -25.926,-36.903 -31.023,-18.335Z" style="fill:#a3421e;fill-rule:nonzero;"/><path d="M344.358,507.644c-1.514,-18.859 31.286,-3.783 31.286,-3.783c0.495,6.286 -29.771,22.613 -31.286,3.783Z" style="fill:#a3421e;fill-rule:nonzero;"/><path d="M338.445,466.696c-1.049,1.833 6.263,0.611 2.36,5.238c-3.904,4.599 13.137,-0.203 13.137,-0.203c-6.525,-7.538 -14.448,-6.869 -15.497,-5.035Z" style="fill:#4e0003;fill-rule:nonzero;"/><path d="M374.479,502.115c17.652,1.426 36.499,14.871 21.585,25.523" style="fill:#4e0003;fill-rule:nonzero;"/><path d="M375.236,502.027c7.137,5.006 22.896,35.012 -1.515,32.392" style="fill:#4e0003;fill-rule:nonzero;"/><path d="M376.372,508.954c0,0 -12.438,-42.608 10.37,-33.236" style="fill:#4e0003;fill-rule:nonzero;"/><path d="M376.78,504.763c-2.622,-6.141 21.148,-31.257 28.372,-13.417" style="fill:#4e0003;fill-rule:nonzero;"/><path d="M409.085,510.176c0.757,-19.266 -36.005,-6.956 -36.005,-6.956" style="fill:#4e0003;fill-rule:nonzero;"/><path d="M337.6,511.195c-0.262,-1.106 -3.495,-1.31 -7.195,-0.437c-3.699,0.873 -6.496,2.474 -6.234,3.609c0.263,1.106 3.467,1.31 7.196,0.437c3.699,-0.903 6.495,-2.503 6.233,-3.609Z" style="fill:#4e0003;fill-rule:nonzero;"/><path d="M350.447,529.035c-1.02,-0.524 -3.234,1.805 -4.982,5.181c-1.747,3.405 -2.33,6.548 -1.311,7.072c1.02,0.524 3.263,-1.805 4.982,-5.21c1.747,-3.347 2.33,-6.519 1.311,-7.043Z" style="fill:#4e0003;fill-rule:nonzero;"/><path d="M312.461,487.417c0.059,0.99 -2.505,2.183 -5.767,2.707c-3.263,0.524 -5.943,0.175 -6.03,-0.815c-0.059,-0.96 2.505,-2.183 5.767,-2.707c3.263,-0.494 5.972,-0.145 6.03,0.815Z" style="fill:#4e0003;fill-rule:nonzero;"/><path d="M336.93,453.337c-0.844,0.582 -3,-1.047 -4.806,-3.638c-1.806,-2.59 -2.564,-5.151 -1.719,-5.733c0.874,-0.582 3.001,1.048 4.807,3.638c1.835,2.59 2.592,5.151 1.718,5.733Z" style="fill:#4e0003;fill-rule:nonzero;"/><path d="M365.507,434.566c-1.253,0 -2.273,-3.085 -2.302,-6.869c-0.029,-3.783 0.962,-6.868 2.214,-6.839c1.253,0 2.272,3.085 2.301,6.868c0.03,3.784 -0.961,6.84 -2.213,6.84Z" style="fill:#4e0003;fill-rule:nonzero;"/><path d="M361.341,442.831c-0.757,0.931 -4.049,-0.087 -7.341,-2.27c-3.32,-2.183 -5.389,-4.715 -4.66,-5.646c0.757,-0.932 4.019,0.087 7.34,2.27c3.321,2.183 5.389,4.715 4.661,5.646Z" style="fill:#4e0003;fill-rule:nonzero;"/><path d="M328.104,497.662c0.408,2.066 5.156,-3.638 5.214,2.415c0.058,6.025 9.788,-8.731 9.788,-8.731c-9.846,-1.455 -15.41,4.249 -15.002,6.316Z" style="fill:#4e0003;fill-rule:nonzero;"/><path d="M335.94,477.318c1.66,-1.309 1.544,6.083 5.535,1.543c3.99,-4.54 1.776,12.951 1.776,12.951c-8.447,-5.297 -8.971,-13.213 -7.311,-14.494Z" style="fill:#4e0003;fill-rule:nonzero;"/><path d="M388.082,452.29c-0.786,-0.903 0.787,-3.959 3.525,-6.811c2.738,-2.852 5.593,-4.453 6.379,-3.55c0.787,0.902 -0.786,3.958 -3.554,6.81c-2.709,2.852 -5.563,4.424 -6.35,3.551Z" style="fill:#4e0003;fill-rule:nonzero;"/><path d="M390.15,462.417c-0.058,-1.251 2.942,-2.444 6.729,-2.677c3.787,-0.233 6.904,0.582 6.962,1.804c0.059,1.252 -2.942,2.445 -6.729,2.678c-3.757,0.262 -6.874,-0.553 -6.962,-1.805Z" style="fill:#4e0003;fill-rule:nonzero;"/><path d="M325.744,488.494c0.554,-1.601 1.515,-0.669 1.661,-1.018c0.379,-0.815 -1.661,-0.874 -1.136,-2.474c0.67,-2.067 2.884,-0.466 3.175,-1.048c0.32,-0.611 -0.612,-1.193 0.466,-2.561c2.534,-3.172 12.468,9.459 12.468,9.459c-3.438,3.899 -17.799,1.105 -16.634,-2.358Z" style="fill:#4e0003;fill-rule:nonzero;"/><path d="M379.052,506.451c-16.429,-6.607 -30.645,-24.913 -12.992,-30.791" style="fill:#4e0003;fill-rule:nonzero;"/><path d="M377.042,500.863c0,0 -5.069,44.092 -22.488,26.63" style="fill:#4e0003;fill-rule:nonzero;"/><path d="M375.44,503.279c0.495,6.286 -29.509,23.573 -31.082,4.365" style="fill:#4e0003;fill-rule:nonzero;"/><path d="M348.437,488.465c-5.302,19.499 32.275,17.346 32.275,17.346" style="fill:#4e0003;fill-rule:nonzero;"/><path d="M353.767,471.818c0.088,0.175 0.35,0 0.262,-0.146c-1.398,-2.27 -3.961,-3.55 -6.437,-2.182c-0.175,0.087 -0.029,0.349 0.145,0.262c2.302,-1.31 4.719,-0.059 6.03,2.066Z" style="fill:#fff;fill-rule:nonzero;"/><path d="M353.855,471.818c0.087,0.175 0.349,0.029 0.262,-0.146c-1.224,-2.182 -1.136,-4.86 1.165,-6.286c0.175,-0.087 0,-0.349 -0.146,-0.262c-2.446,1.513 -2.592,4.366 -1.281,6.694Z" style="fill:#fff;fill-rule:nonzero;"/><path d="M348.582,465.59c0.073,-0.185 0.281,-0.276 0.466,-0.204c0.185,0.072 0.277,0.281 0.204,0.466c-0.072,0.184 -0.281,0.276 -0.466,0.203c-0.185,-0.072 -0.276,-0.281 -0.204,-0.465Z" style="fill:#fff;"/><path d="M348.932,463.727c0.087,-0.174 0.291,-0.262 0.466,-0.174c0.175,0.087 0.262,0.291 0.204,0.465c-0.088,0.175 -0.292,0.262 -0.466,0.204c-0.204,-0.117 -0.292,-0.32 -0.204,-0.495Z" style="fill:#fff;fill-rule:nonzero;"/><path d="M350.738,464.047c0.087,-0.174 0.291,-0.262 0.466,-0.203c0.175,0.087 0.262,0.291 0.204,0.465c-0.088,0.175 -0.291,0.262 -0.466,0.204c-0.204,-0.087 -0.262,-0.291 -0.204,-0.466Z" style="fill:#fff;fill-rule:nonzero;"/><path d="M353.709,471.672c0.087,0.175 0.35,0.029 0.262,-0.145c-1.165,-2.096 -2.301,-4.162 -3.466,-6.257c-0.088,-0.175 -0.35,-0.029 -0.262,0.145c1.136,2.096 2.301,4.162 3.466,6.257Z" style="fill:#fff;fill-rule:nonzero;"/><path d="M332.619,463.931c-0.087,-0.087 -0.233,-0.087 -0.32,-0.029c-0.088,0.087 -0.088,0.233 0,0.32c0.087,0.087 0.233,0.087 0.32,0.029c0.087,-0.087 0.087,-0.233 0,-0.32Z" style="fill:#fff;fill-rule:nonzero;"/><path d="M323.035,477.464c-0.087,-0.087 -0.233,-0.087 -0.32,-0.029c-0.087,0.087 -0.087,0.233 0,0.32c0.087,0.087 0.233,0.087 0.32,0.029c0.088,-0.087 0.088,-0.233 0,-0.32Z" style="fill:#fff;fill-rule:nonzero;"/><path d="M321.404,464.658c-0.145,-0.174 -0.408,-0.174 -0.582,-0.029c-0.146,0.146 -0.146,0.408 0,0.582c0.145,0.175 0.407,0.175 0.582,0.03c0.146,-0.146 0.146,-0.408 0,-0.583Z" style="fill:#fff;fill-rule:nonzero;"/><path d="M343.018,491.375c0.175,0.088 0.263,-0.203 0.088,-0.291c-2.301,-0.96 -3.874,-3.172 -2.942,-5.675c0.058,-0.174 -0.204,-0.262 -0.292,-0.087c-0.99,2.677 0.7,5.006 3.146,6.053Z" style="fill:#fff;fill-rule:nonzero;"/><path d="M342.785,491.404c0.175,0.059 0.263,-0.203 0.088,-0.291c-2.476,-0.931 -5.302,-0.349 -6.409,2.241c-0.058,0.175 0.175,0.321 0.262,0.146c1.049,-2.474 3.7,-2.969 6.059,-2.096Z" style="fill:#fff;fill-rule:nonzero;"/><path d="M336.173,486.923c-0.175,0.116 -0.233,0.32 -0.117,0.494c0.117,0.175 0.321,0.233 0.496,0.117c0.174,-0.088 0.233,-0.32 0.116,-0.495c-0.116,-0.146 -0.349,-0.204 -0.495,-0.116Z" style="fill:#fff;fill-rule:nonzero;"/><path d="M334.367,487.534c-0.175,0.087 -0.233,0.32 -0.117,0.494c0.117,0.175 0.321,0.233 0.496,0.117c0.174,-0.117 0.233,-0.32 0.116,-0.495c-0.087,-0.145 -0.32,-0.204 -0.495,-0.116Z" style="fill:#fff;fill-rule:nonzero;"/><path d="M334.979,489.28c-0.175,0.087 -0.233,0.32 -0.117,0.495c0.117,0.174 0.321,0.233 0.495,0.116c0.175,-0.087 0.233,-0.32 0.117,-0.495c-0.117,-0.145 -0.35,-0.203 -0.495,-0.116Z" style="fill:#fff;fill-rule:nonzero;"/><path d="M342.873,491.346c0.175,0.058 0.262,-0.203 0.087,-0.291c-2.243,-0.844 -4.486,-1.659 -6.729,-2.503c-0.175,-0.058 -0.262,0.204 -0.087,0.291c2.243,0.844 4.486,1.659 6.729,2.503Z" style="fill:#fff;fill-rule:nonzero;"/><path d="M379.431,503.482c0,2.329 -1.166,3.493 -3.496,3.493c-2.33,0 -3.496,-1.164 -3.496,-3.493c0,-2.328 1.166,-3.492 3.496,-3.492c2.33,0 3.496,1.164 3.496,3.492Z" style="fill:#fff;fill-rule:nonzero;"/><path d="M357.729,456.684c2.097,0.087 -2.826,5.617 3.175,4.773c5.972,-0.844 -7.166,10.972 -7.166,10.972c-2.884,-9.488 1.894,-15.832 3.991,-15.745Z" style="fill:#4e0003;fill-rule:nonzero;"/><path d="M367.633,440.27c1.049,0 1.864,0.844 1.864,1.862c0,1.048 -0.844,1.863 -1.864,1.863c-1.049,0 -1.864,-0.844 -1.864,-1.863c-0.029,-1.018 0.815,-1.862 1.864,-1.862Z" style="fill:#4e0003;fill-rule:nonzero;"/><path d="M272.903,513.989c1.049,0 1.864,0.844 1.864,1.891c0,1.048 -0.844,1.863 -1.864,1.863c-1.049,0 -1.864,-0.844 -1.864,-1.863c0,-1.047 0.845,-1.891 1.864,-1.891Z" style="fill:#4e0003;fill-rule:nonzero;"/><path d="M411.211,485.293c1.049,0 1.865,0.844 1.865,1.862c0,1.048 -0.845,1.863 -1.865,1.863c-1.048,0 -1.864,-0.844 -1.864,-1.863c-0.029,-1.018 0.816,-1.862 1.864,-1.862Z" style="fill:#4e0003;fill-rule:nonzero;"/><path d="M339.261,527.26c0,1.242 -0.622,1.862 -1.865,1.862c-1.242,0 -1.864,-0.62 -1.864,-1.862c0,-1.242 0.622,-1.863 1.864,-1.863c1.243,0 1.865,0.621 1.865,1.863Z" style="fill:#4e0003;fill-rule:nonzero;"/><path d="M342.348,522.749c0.583,0 1.049,0.465 1.049,1.048c0,0.582 -0.466,1.047 -1.049,1.047c-0.582,0 -1.048,-0.465 -1.048,-1.047c0,-0.583 0.495,-1.048 1.048,-1.048Z" style="fill:#4e0003;fill-rule:nonzero;"/><path d="M364.254,447.575c0,0.698 -0.35,1.047 -1.049,1.047c-0.699,0 -1.048,-0.349 -1.048,-1.047c0,-0.699 0.349,-1.048 1.048,-1.048c0.699,0 1.049,0.349 1.049,1.048Z" style="fill:#4e0003;fill-rule:nonzero;"/><path d="M319.132,486.748c0,0.698 -0.35,1.048 -1.049,1.048c-0.699,0 -1.048,-0.35 -1.048,-1.048c0,-0.699 0.349,-1.048 1.048,-1.048c0.699,0 1.049,0.349 1.049,1.048Z" style="fill:#4e0003;fill-rule:nonzero;"/><path d="M337.455,456.48c0,0.699 -0.35,1.048 -1.049,1.048c-0.699,0 -1.049,-0.349 -1.049,-1.048c0,-0.698 0.35,-1.047 1.049,-1.047c0.699,0 1.049,0.349 1.049,1.047Z" style="fill:#4e0003;fill-rule:nonzero;"/><path d="M269.553,519.78c0.583,0 1.049,0.466 1.049,1.048c0,0.582 -0.466,1.048 -1.049,1.048c-0.582,0 -1.048,-0.466 -1.048,-1.048c0,-0.582 0.466,-1.048 1.048,-1.048Z" style="fill:#4e0003;fill-rule:nonzero;"/><path d="M413.745,483.226c0,0.699 -0.349,1.048 -1.048,1.048c-0.699,0 -1.049,-0.349 -1.049,-1.048c0,-0.698 0.35,-1.047 1.049,-1.047c0.699,0 1.048,0.349 1.048,1.047Z" style="fill:#4e0003;fill-rule:nonzero;"/><path d="M385.46,421.294c0.583,0 1.049,0.466 1.049,1.048c0,0.582 -0.466,1.048 -1.049,1.048c-0.582,0 -1.048,-0.466 -1.048,-1.048c0,-0.582 0.466,-1.048 1.048,-1.048Z" style="fill:#4e0003;fill-rule:nonzero;"/></g></g><g><clipPath id="_clip5"><rect x="26.708" y="17.542" width="151.375" height="126"/></clipPath><g clip-path="url(#_clip5)"><path d="M130.69,45.997c-2.307,12.634 10.565,23.293 13.662,16.005c2.702,-6.348 -7.256,-16.46 -7.256,-16.46l-6.406,0.455Z" style="fill:#f9b01e;fill-rule:nonzero;"/><path d="M142.864,44.691c-5.464,-11.601 4.19,-25.206 9.078,-18.98c4.25,5.436 -2.763,17.766 -2.763,17.766l-6.315,1.214Z" style="fill:#f9b01e;fill-rule:nonzero;"/><path d="M114.539,47.303c-6.314,-13.423 5.435,-28.273 11.051,-21.076c4.918,6.286 -3.188,20.529 -3.188,20.529l-7.863,0.547Z" style="fill:#f9b01e;fill-rule:nonzero;"/><path d="M52.122,96.926c13.418,-3.645 26.078,9.292 18.518,13.301c-6.587,3.493 -18.427,-6.317 -18.427,-6.317l-0.091,-6.984Z" style="fill:#f9b01e;fill-rule:nonzero;"/><path d="M51.818,110.197c-13.024,-4.859 -26.837,6.833 -19.673,11.54c6.254,4.1 18.944,-4.586 18.944,-4.586l0.729,-6.954Z" style="fill:#f9b01e;fill-rule:nonzero;"/><path d="M52.091,79.372c-15.058,-5.618 -30.025,8.413 -21.737,13.849c7.226,4.737 21.859,-5.315 21.859,-5.315l-0.122,-8.534Z" style="fill:#f9b01e;fill-rule:nonzero;"/><path d="M70.883,41.685c4.736,6.377 7.104,13.666 12.599,19.77c6.224,6.894 15.362,8.716 23.953,8.655c6.011,-0.03 11.689,-0.972 17.457,-1.701l0.06,-0.121c-4.28,-7.198 -7.103,-13.666 -12.598,-19.77c-6.224,-6.894 -15.362,-8.716 -23.923,-8.655c-6.011,0.03 -11.688,0.972 -17.457,1.7" style="fill:#f9b01e;fill-rule:nonzero;"/><path d="M73.676,69.624c-0.819,7.44 -4.22,14.395 -4.25,21.987c-0.03,8.594 5.859,14.668 12.66,19.011c4.766,3.037 9.897,5.193 14.967,7.562l0.121,-0.061c1.791,-7.835 4.22,-14.364 4.25,-21.987c0.031,-8.594 -5.859,-14.698 -12.659,-19.011c-4.767,-3.037 -9.897,-5.193 -14.967,-7.562" style="fill:#f9b01e;fill-rule:nonzero;"/><path d="M78.807,59.663c-0.395,-0.304 -0.789,0.365 -0.395,0.668c7.56,5.497 16.819,9.02 25.927,10.66c0.486,0.091 0.698,-0.668 0.212,-0.729c-9.077,-1.64 -18.215,-5.132 -25.744,-10.599Z" style="fill:#e5750d;fill-rule:nonzero;"/><path d="M76.318,69.897c-0.365,-0.364 -0.881,0.183 -0.547,0.547c6.497,6.56 11.354,15.093 14.299,23.779c0.152,0.455 0.911,0.273 0.729,-0.213c-2.975,-8.807 -7.863,-17.431 -14.481,-24.113Z" style="fill:#e5750d;fill-rule:nonzero;"/><path d="M83.088,42.93c-0.486,-0.182 -0.699,0.607 -0.213,0.79c6.831,2.368 14.572,3.036 21.737,3.401c20.249,1.032 40.438,-2.035 59.989,-7.167c0.516,-0.122 0.304,-0.911 -0.212,-0.79c-19.734,5.193 -40.378,8.443 -60.84,7.076c-6.77,-0.425 -13.995,-1.032 -20.461,-3.31Z" style="fill:#e5750d;fill-rule:nonzero;"/><path d="M130.478,46.149c-6.861,-11.449 2.095,-25.57 7.772,-19.649c4.948,5.194 -1.033,18.677 -1.033,18.677l-6.739,0.972Z" style="fill:#e5750d;fill-rule:nonzero;"/><path d="M172.889,35.399c2.125,6.802 -15.635,6.559 -15.635,6.559c0,0 13.267,-14.091 15.635,-6.559Z" style="fill:#e5750d;fill-rule:nonzero;"/><path d="M113.811,47.121c-2.672,14.577 13.449,27.878 17.031,19.466c3.127,-7.319 -8.561,-19.709 -8.561,-19.709l-8.47,0.243Z" style="fill:#e5750d;fill-rule:nonzero;"/><path d="M143.836,43.902c-0.911,11.115 5.039,16.095 11.506,13.18c5.464,-2.46 -7.651,-13.636 -7.651,-13.636l-3.855,0.456Z" style="fill:#e5750d;fill-rule:nonzero;"/><path d="M152.427,42.444c1.852,3.341 4.676,7.592 8.41,9.02c2.944,1.154 6.496,0.334 7.043,-3.25c0.698,-4.555 -9.411,-7.835 -12.812,-6.681c0,0 -2.641,0.911 -2.641,0.911Z" style="fill:#e5750d;fill-rule:nonzero;"/><path d="M156.344,41.685c3.4,-1.124 6.375,-3.189 7.893,-6.438c1.336,-2.885 1.791,-7.107 -2.611,-7.076c-2.975,0.03 -4.857,4.312 -5.95,6.529c-0.547,1.124 -2.581,7.805 -3.309,8.048c0.151,-0.243 3.946,-1.063 3.977,-1.063Z" style="fill:#e5750d;fill-rule:nonzero;"/><path d="M45.321,45.42c-0.243,-0.516 -1.002,-0.061 -0.759,0.456c3.006,6.772 4.402,14.577 5.434,21.865c3.158,21.987 1.67,44.369 -2.155,66.174c-0.091,0.546 0.759,0.789 0.85,0.243c3.764,-21.562 5.404,-43.853 2.277,-65.627c-1.093,-7.714 -2.459,-15.913 -5.647,-23.111Z" style="fill:#e5750d;fill-rule:nonzero;"/><path d="M52.486,96.561c-12.994,-6.377 -27.657,4.707 -20.705,10.295c6.041,4.89 20.067,-2.794 20.067,-2.794l0.638,-7.501Z" style="fill:#e5750d;fill-rule:nonzero;"/><path d="M51.818,77.581c15.513,-4.191 31.3,11.995 22.526,16.642c-7.62,4.039 -21.646,-7.471 -21.646,-7.471l-0.88,-9.171Z" style="fill:#e5750d;fill-rule:nonzero;"/><path d="M49.784,125.017c-0.881,3.765 -2.854,7.167 -6.254,9.11c-3.006,1.701 -7.499,2.582 -7.863,-2.156c-0.243,-3.189 4.22,-5.648 6.497,-7.015c1.153,-0.698 8.318,-3.644 8.5,-4.464c-0.212,0.03 -0.88,4.525 -0.88,4.525Z" style="fill:#e5750d;fill-rule:nonzero;"/><path d="M50.239,120.735c3.765,1.7 8.622,4.373 10.504,8.26c1.518,3.067 0.972,6.985 -2.884,7.896c-4.827,1.154 -9.289,-9.445 -8.348,-13.241c0.03,0 0.728,-2.915 0.728,-2.915Z" style="fill:#e5750d;fill-rule:nonzero;"/><path d="M51.029,111.32c11.931,-2.004 17.82,3.979 15.27,11.206c-2.155,6.135 -15.392,-7.045 -15.392,-7.045l0.122,-4.161Z" style="fill:#e5750d;fill-rule:nonzero;"/><path d="M47.568,143.542c7.711,0.364 2.55,-18.191 2.55,-18.191c0,0 -11.112,17.796 -2.55,18.191Z" style="fill:#e5750d;fill-rule:nonzero;"/><path d="M94.624,107.615c1.579,-0.82 0.455,-1.67 0.789,-1.882c0.79,-0.517 1.154,1.548 2.733,0.759c2.003,-1.002 0.03,-3.037 0.576,-3.432c0.577,-0.425 1.336,0.456 2.581,-0.881c2.884,-3.097 -11.719,-11.357 -11.719,-11.357c-3.461,4.19 1.67,18.555 5.04,16.793Z" style="fill:#a3421e;fill-rule:nonzero;"/><path d="M113.355,97.351c0.122,-0.213 0.091,-0.516 -0.242,-0.851c-0.334,-0.364 -0.638,-0.455 -0.881,-0.394c-0.061,-0.334 -0.273,-0.608 -0.88,-0.608c-0.759,-0.03 -1.032,0.274 -1.063,0.668c-0.273,-0.182 -0.577,-0.212 -0.971,0.152c-0.425,0.395 -0.425,0.759 -0.213,1.063c-0.455,0.122 -0.759,0.395 -0.607,0.942c0.091,0.334 0.304,0.516 0.546,0.607c-0.121,0.182 -0.151,0.425 0.061,0.729c0.273,0.395 0.577,0.455 0.881,0.364c0,0.334 0.151,0.638 0.667,0.759c0.759,0.213 1.002,-0.182 1.002,-0.698c0.182,0.213 0.456,0.304 0.881,0.091c0.607,-0.334 0.637,-0.729 0.364,-1.093c0.395,0.061 0.729,-0.091 0.789,-0.79c0.122,-0.516 -0.03,-0.82 -0.334,-0.941Zm-2.003,0.911c0,0 0,-0.031 0,0c0,-0.031 0,-0.031 0,0c0,-0.031 0,-0.031 0,0Z" style="fill:#a3421e;fill-rule:nonzero;"/><path d="M123.343,83.229c0.122,-0.212 0.092,-0.516 -0.242,-0.85c-0.334,-0.364 -0.638,-0.456 -0.881,-0.395c-0.061,-0.334 -0.273,-0.607 -0.88,-0.607c-0.759,-0.031 -1.032,0.273 -1.063,0.668c-0.273,-0.182 -0.577,-0.213 -0.971,0.152c-0.425,0.395 -0.425,0.759 -0.213,1.063c-0.455,0.121 -0.759,0.394 -0.607,0.941c0.091,0.334 0.304,0.516 0.546,0.607c-0.121,0.183 -0.151,0.426 0.061,0.729c0.273,0.395 0.577,0.456 0.881,0.365c0,0.334 0.151,0.638 0.668,0.759c0.758,0.213 1.001,-0.182 1.001,-0.699c0.183,0.213 0.456,0.304 0.881,0.092c0.607,-0.334 0.637,-0.729 0.364,-1.094c0.395,0.061 0.729,-0.091 0.789,-0.789c0.122,-0.486 -0.06,-0.79 -0.334,-0.942Zm-2.034,0.911c0,-0.03 0,-0.03 0,0c0,-0.03 0,0 0,0Z" style="fill:#a3421e;fill-rule:nonzero;"/><path d="M126.744,94.739c0.212,-0.395 0.151,-0.881 -0.425,-1.488c-0.638,-0.638 -1.154,-0.79 -1.579,-0.698c-0.091,-0.608 -0.516,-1.063 -1.548,-1.124c-1.336,-0.03 -1.852,0.486 -1.913,1.184c-0.486,-0.334 -1.063,-0.364 -1.761,0.274c-0.759,0.698 -0.759,1.336 -0.394,1.913c-0.85,0.182 -1.397,0.729 -1.093,1.731c0.182,0.607 0.546,0.941 1.001,1.063c-0.242,0.334 -0.242,0.759 0.122,1.336c0.486,0.698 1.062,0.85 1.609,0.668c0,0.607 0.304,1.124 1.214,1.367c1.366,0.394 1.791,-0.304 1.822,-1.276c0.334,0.395 0.82,0.577 1.548,0.182c1.093,-0.607 1.123,-1.305 0.668,-1.943c0.729,0.121 1.336,-0.152 1.427,-1.428c0.121,-0.971 -0.182,-1.518 -0.698,-1.761Zm-3.613,1.64c0,0 0,-0.03 -0.03,-0.03l0.03,0l0,0.03Z" style="fill:#a3421e;fill-rule:nonzero;"/><path d="M45.109,31.876c18.852,-13.666 20.856,25.601 20.856,25.601c-18.397,-1.488 -35.763,-14.79 -20.856,-25.601Z" style="fill:#a3421e;fill-rule:nonzero;"/><path d="M68.394,24.8c23.346,2.52 -1.518,32.92 -1.518,32.92c-7.408,-5.224 -23.892,-35.653 1.518,-32.92Z" style="fill:#a3421e;fill-rule:nonzero;"/><path d="M93.319,30.357c0.667,-0.637 -0.547,-2.976 -2.733,-5.193c-2.186,-2.217 -4.463,-3.462 -5.13,-2.824c-0.668,0.668 0.546,2.976 2.732,5.193c2.155,2.217 4.463,3.492 5.131,2.824Z" style="fill:#a3421e;fill-rule:nonzero;"/><path d="M106.555,49.641c0.911,0.092 1.852,-2.308 2.125,-5.344c0.273,-3.037 -0.243,-5.558 -1.154,-5.649c-0.91,-0.091 -1.851,2.308 -2.125,5.345c-0.273,3.067 0.243,5.588 1.154,5.648Z" style="fill:#a3421e;fill-rule:nonzero;"/><path d="M54.823,86.054c-22.07,-9.081 10.808,-34.682 10.808,-34.682c0,0 12.994,44.46 -10.808,34.682Z" style="fill:#a3421e;fill-rule:nonzero;"/><path d="M31.538,51.403c0.577,16.703 36.704,8.594 36.583,8.625c0,-10.508 -37.251,-28.729 -36.583,-8.625Z" style="fill:#a3421e;fill-rule:nonzero;"/><path d="M35.667,69.776c-7.377,-18.312 29.964,-13.484 29.964,-13.484c2.429,6.074 -22.617,31.766 -29.964,13.484Z" style="fill:#a3421e;fill-rule:nonzero;"/><path d="M107.01,109.286c0.79,0.152 0.85,2.368 0.091,4.95c-0.759,2.581 -1.973,4.555 -2.762,4.403c-0.79,-0.152 -0.85,-2.368 -0.091,-4.95c0.728,-2.581 1.973,-4.555 2.762,-4.403Z" style="fill:#a3421e;fill-rule:nonzero;"/><path d="M132.33,73.602c0.425,-0.698 2.55,-0.243 4.705,1.003c2.186,1.245 3.583,2.824 3.158,3.522c-0.425,0.699 -2.551,0.243 -4.706,-1.002c-2.155,-1.245 -3.582,-2.824 -3.157,-3.523Z" style="fill:#a3421e;fill-rule:nonzero;"/><path d="M77.532,129.208c0.668,0.698 -0.789,2.915 -3.279,4.98c-2.489,2.065 -5.07,3.158 -5.738,2.49c-0.698,-0.698 0.79,-2.915 3.249,-4.98c2.489,-2.065 5.07,-3.189 5.768,-2.49Z" style="fill:#a3421e;fill-rule:nonzero;"/><path d="M81.63,120.188c0.941,-0.273 2.429,1.853 3.309,4.768c0.881,2.915 0.82,5.466 -0.151,5.74c-0.972,0.273 -2.429,-1.883 -3.309,-4.768c-0.881,-2.885 -0.82,-5.467 0.151,-5.74Z" style="fill:#a3421e;fill-rule:nonzero;"/><path d="M51.12,100.448c-0.638,0.729 -2.945,-0.607 -5.161,-2.976c-2.186,-2.369 -3.461,-4.859 -2.793,-5.588c0.637,-0.728 2.944,0.608 5.161,2.977c2.186,2.368 3.43,4.859 2.793,5.587Z" style="fill:#a3421e;fill-rule:nonzero;"/><path d="M53.548,110.652c0.091,0.972 -2.277,2.065 -5.282,2.399c-3.006,0.334 -5.525,-0.182 -5.616,-1.154c-0.092,-1.002 2.276,-2.065 5.282,-2.429c3.006,-0.304 5.525,0.213 5.616,1.184Z" style="fill:#a3421e;fill-rule:nonzero;"/><path d="M76.409,86.114c-22.071,7.41 -12.265,-30.642 -12.265,-30.642c17.092,6.894 29.721,24.781 12.265,30.642Z" style="fill:#a3421e;fill-rule:nonzero;"/><path d="M88.37,32.058c16.819,16.915 -23.437,27.787 -23.437,27.787c0,0 5.313,-46.008 23.437,-27.787Z" style="fill:#a3421e;fill-rule:nonzero;"/><path d="M94.776,72.752c5.343,-19.375 -32.332,-19.132 -32.332,-19.132c-3.127,10.052 26.989,38.507 32.332,19.132Z" style="fill:#a3421e;fill-rule:nonzero;"/><path d="M99.026,52.769c1.579,19.679 -32.605,3.948 -32.605,3.948c-0.547,-6.559 31.026,-23.627 32.605,-3.948Z" style="fill:#a3421e;fill-rule:nonzero;"/><path d="M105.158,95.468c1.093,-1.913 -6.527,-0.638 -2.459,-5.466c4.069,-4.799 -13.691,0.212 -13.691,0.212c6.8,7.866 15.058,7.167 16.15,5.254Z" style="fill:#4e0003;fill-rule:nonzero;"/><path d="M67.605,58.509c-18.398,-1.488 -38.04,-15.518 -22.496,-26.633" style="fill:#4e0003;fill-rule:nonzero;"/><path d="M66.846,58.6c-7.438,-5.223 -23.862,-36.533 1.548,-33.8" style="fill:#4e0003;fill-rule:nonzero;"/><path d="M65.631,51.372c0,0 12.963,44.46 -10.808,34.682" style="fill:#4e0003;fill-rule:nonzero;"/><path d="M65.237,55.746c2.732,6.407 -22.041,32.616 -29.57,14" style="fill:#4e0003;fill-rule:nonzero;"/><path d="M31.538,50.097c-0.789,20.104 37.524,7.258 37.524,7.258" style="fill:#4e0003;fill-rule:nonzero;"/><path d="M106.039,49.034c0.273,1.154 3.643,1.367 7.499,0.456c3.855,-0.911 6.77,-2.582 6.496,-3.766c-0.273,-1.154 -3.612,-1.367 -7.498,-0.456c-3.826,0.942 -6.77,2.612 -6.497,3.766Z" style="fill:#4e0003;fill-rule:nonzero;"/><path d="M92.651,30.418c1.062,0.547 3.369,-1.883 5.191,-5.406c1.822,-3.553 2.429,-6.833 1.366,-7.379c-1.062,-0.547 -3.4,1.883 -5.191,5.436c-1.822,3.523 -2.429,6.802 -1.366,7.349Z" style="fill:#4e0003;fill-rule:nonzero;"/><path d="M132.239,73.845c-0.061,-1.032 2.61,-2.277 6.011,-2.824c3.4,-0.547 6.193,-0.182 6.284,0.85c0.061,1.003 -2.611,2.278 -6.011,2.825c-3.37,0.546 -6.193,0.152 -6.284,-0.851Z" style="fill:#4e0003;fill-rule:nonzero;"/><path d="M106.737,109.407c0.881,-0.607 3.127,1.093 5.009,3.796c1.883,2.703 2.672,5.376 1.792,5.983c-0.911,0.607 -3.127,-1.093 -5.01,-3.796c-1.882,-2.673 -2.671,-5.375 -1.791,-5.983Z" style="fill:#4e0003;fill-rule:nonzero;"/><path d="M76.985,128.995c1.306,0 2.368,3.219 2.399,7.167c0.03,3.948 -1.002,7.167 -2.307,7.137c-1.306,0 -2.368,-3.219 -2.399,-7.167c-0.03,-3.948 1.002,-7.137 2.307,-7.137Z" style="fill:#4e0003;fill-rule:nonzero;"/><path d="M81.327,120.37c0.789,-0.971 4.22,0.091 7.65,2.369c3.461,2.278 5.617,4.92 4.827,5.892c-0.789,0.971 -4.189,-0.091 -7.65,-2.369c-3.431,-2.278 -5.617,-4.92 -4.827,-5.892Z" style="fill:#4e0003;fill-rule:nonzero;"/><path d="M115.966,63.186c-0.425,-2.156 -5.373,3.796 -5.434,-2.521c-0.061,-6.286 -10.201,9.111 -10.201,9.111c10.262,1.488 16.06,-4.434 15.635,-6.59Z" style="fill:#4e0003;fill-rule:nonzero;"/><path d="M107.8,84.414c-1.731,1.366 -1.609,-6.347 -5.768,-1.61c-4.16,4.738 -1.852,-13.514 -1.852,-13.514c8.804,5.497 9.35,13.757 7.62,15.124Z" style="fill:#4e0003;fill-rule:nonzero;"/><path d="M53.457,110.531c0.82,0.941 -0.819,4.13 -3.673,7.106c-2.854,2.976 -5.829,4.647 -6.649,3.705c-0.819,-0.941 0.82,-4.13 3.704,-7.106c2.823,-2.976 5.799,-4.647 6.618,-3.705Z" style="fill:#4e0003;fill-rule:nonzero;"/><path d="M51.271,99.932c0.061,1.306 -3.066,2.551 -7.012,2.794c-3.947,0.243 -7.195,-0.607 -7.256,-1.883c-0.061,-1.306 3.066,-2.551 7.013,-2.794c3.946,-0.273 7.195,0.577 7.255,1.883Z" style="fill:#4e0003;fill-rule:nonzero;"/><path d="M118.395,72.722c-0.577,1.67 -1.579,0.698 -1.731,1.063c-0.394,0.85 1.731,0.911 1.184,2.581c-0.698,2.156 -3.005,0.486 -3.309,1.093c-0.334,0.638 0.638,1.245 -0.485,2.673c-2.642,3.31 -12.994,-9.87 -12.994,-9.87c3.613,-4.039 18.58,-1.124 17.335,2.46Z" style="fill:#4e0003;fill-rule:nonzero;"/><path d="M62.869,53.984c17.122,6.894 31.937,25.996 13.54,32.13" style="fill:#4e0003;fill-rule:nonzero;"/><path d="M64.963,59.845c0,0 5.283,-46.008 23.437,-27.787" style="fill:#4e0003;fill-rule:nonzero;"/><path d="M66.633,57.325c-0.516,-6.56 30.754,-24.599 32.393,-4.556" style="fill:#4e0003;fill-rule:nonzero;"/><path d="M94.776,72.752c5.525,-20.347 -33.638,-18.1 -33.638,-18.1" style="fill:#4e0003;fill-rule:nonzero;"/><path d="M89.22,90.153c-0.091,-0.182 -0.364,0 -0.273,0.152c1.457,2.369 4.129,3.705 6.709,2.278c0.182,-0.091 0.031,-0.365 -0.152,-0.273c-2.428,1.336 -4.918,0.03 -6.284,-2.157Z" style="fill:#fff;fill-rule:nonzero;"/><path d="M89.129,90.123c-0.091,-0.182 -0.364,-0.03 -0.273,0.152c1.275,2.278 1.184,5.071 -1.215,6.56c-0.182,0.091 0,0.364 0.152,0.273c2.52,-1.549 2.702,-4.525 1.336,-6.985Z" style="fill:#fff;fill-rule:nonzero;"/><path d="M94.594,96.652c-0.091,0.183 -0.304,0.274 -0.486,0.213c-0.182,-0.091 -0.273,-0.304 -0.213,-0.486c0.091,-0.182 0.304,-0.273 0.486,-0.213c0.213,0.061 0.304,0.304 0.213,0.486Z" style="fill:#fff;fill-rule:nonzero;"/><path d="M94.26,98.566c-0.091,0.182 -0.304,0.273 -0.486,0.182c-0.182,-0.091 -0.273,-0.304 -0.213,-0.486c0.091,-0.182 0.304,-0.273 0.486,-0.213c0.182,0.122 0.273,0.334 0.213,0.517Z" style="fill:#fff;fill-rule:nonzero;"/><path d="M92.377,98.231c-0.075,0.193 -0.293,0.288 -0.485,0.213c-0.193,-0.075 -0.288,-0.293 -0.213,-0.486c0.076,-0.193 0.293,-0.288 0.486,-0.212c0.193,0.075 0.288,0.293 0.212,0.485Z" style="fill:#fff;"/><path d="M89.281,90.275c-0.091,-0.182 -0.365,-0.031 -0.273,0.152c1.214,2.186 2.398,4.342 3.612,6.529c0.091,0.182 0.365,0.03 0.274,-0.152c-1.215,-2.156 -2.429,-4.343 -3.613,-6.529Z" style="fill:#fff;fill-rule:nonzero;"/><path d="M111.261,98.383c0.091,0.091 0.242,0.091 0.334,0.031c0.091,-0.091 0.091,-0.243 0,-0.334c-0.092,-0.091 -0.243,-0.091 -0.334,-0.031c-0.091,0.061 -0.091,0.213 0,0.334Z" style="fill:#fff;fill-rule:nonzero;"/><path d="M121.218,84.262c0.091,0.091 0.243,0.091 0.334,0.03c0.091,-0.091 0.091,-0.243 0,-0.334c-0.091,-0.091 -0.243,-0.091 -0.334,-0.03c-0.091,0.091 -0.091,0.243 0,0.334Z" style="fill:#fff;fill-rule:nonzero;"/><path d="M122.949,97.594c0.152,0.182 0.425,0.182 0.607,0.03c0.152,-0.152 0.152,-0.425 0,-0.607c-0.152,-0.182 -0.425,-0.182 -0.607,-0.031c-0.152,0.183 -0.152,0.426 0,0.608Z" style="fill:#fff;fill-rule:nonzero;"/><path d="M100.423,69.746c-0.183,-0.092 -0.274,0.212 -0.092,0.303c2.399,1.002 4.038,3.31 3.067,5.922c-0.061,0.182 0.212,0.273 0.303,0.091c1.032,-2.794 -0.728,-5.254 -3.278,-6.316Z" style="fill:#fff;fill-rule:nonzero;"/><path d="M100.665,69.715c-0.182,-0.061 -0.273,0.213 -0.091,0.304c2.581,0.972 5.526,0.364 6.679,-2.338c0.061,-0.183 -0.182,-0.335 -0.273,-0.152c-1.093,2.581 -3.856,3.097 -6.315,2.186Z" style="fill:#fff;fill-rule:nonzero;"/><path d="M107.561,74.368c-0.18,0.111 -0.417,0.053 -0.529,-0.129c-0.113,-0.182 -0.059,-0.42 0.12,-0.531c0.18,-0.111 0.417,-0.053 0.53,0.129c0.112,0.182 0.058,0.42 -0.121,0.531Z" style="fill:#fff;"/><path d="M109.409,73.724c0.182,-0.091 0.243,-0.334 0.121,-0.516c-0.121,-0.183 -0.334,-0.243 -0.516,-0.122c-0.182,0.122 -0.243,0.334 -0.121,0.516c0.121,0.183 0.364,0.243 0.516,0.122Z" style="fill:#fff;fill-rule:nonzero;"/><path d="M108.811,71.917c-0.179,0.112 -0.418,0.052 -0.532,-0.133c-0.114,-0.184 -0.061,-0.425 0.118,-0.536c0.18,-0.111 0.418,-0.051 0.532,0.134c0.115,0.184 0.062,0.424 -0.118,0.535Z" style="fill:#fff;"/><path d="M100.574,69.746c-0.182,-0.061 -0.273,0.212 -0.091,0.303c2.338,0.881 4.675,1.731 7.013,2.612c0.182,0.061 0.273,-0.213 0.091,-0.304c-2.337,-0.88 -4.675,-1.731 -7.013,-2.611Z" style="fill:#fff;fill-rule:nonzero;"/><path d="M69.73,57.082c0,2.429 -1.215,3.644 -3.643,3.644c-2.429,0 -3.643,-1.215 -3.643,-3.644c0,-2.43 1.214,-3.644 3.643,-3.644c2.428,0 3.643,1.214 3.643,3.644Z" style="fill:#fff;fill-rule:nonzero;"/><path d="M85.061,105.915c-2.186,-0.091 2.945,-5.861 -3.309,-4.981c-6.224,0.881 7.468,-11.449 7.468,-11.449c3.036,9.9 -1.943,16.551 -4.159,16.43Z" style="fill:#4e0003;fill-rule:nonzero;"/><path d="M74.769,123.073c-1.093,0 -1.943,-0.881 -1.943,-1.974c0,-1.093 0.881,-1.943 1.943,-1.943c1.063,0 1.943,0.88 1.943,1.943c0.031,1.093 -0.85,1.974 -1.943,1.974Z" style="fill:#4e0003;fill-rule:nonzero;"/><path d="M173.466,46.119c-1.093,0 -1.943,-0.881 -1.943,-1.974c0,-1.094 0.88,-1.944 1.943,-1.944c1.093,0 1.943,0.881 1.943,1.944c0.03,1.093 -0.85,1.974 -1.943,1.974Z" style="fill:#4e0003;fill-rule:nonzero;"/><path d="M29.352,76.062c-1.093,0 -1.943,-0.88 -1.943,-1.943c0,-1.094 0.881,-1.944 1.943,-1.944c1.063,0 1.943,0.881 1.943,1.944c0,1.063 -0.88,1.943 -1.943,1.943Z" style="fill:#4e0003;fill-rule:nonzero;"/><path d="M108.194,32.271c0,1.295 -0.647,1.943 -1.943,1.943c-1.295,0 -1.943,-0.648 -1.943,-1.943c0,-1.296 0.648,-1.944 1.943,-1.944c1.296,0 1.943,0.648 1.943,1.944Z" style="fill:#4e0003;fill-rule:nonzero;"/><ellipse cx="101.09" cy="35.884" rx="1.093" ry="1.093" style="fill:#4e0003;"/><path d="M80.446,115.42c0,0.729 -0.364,1.093 -1.093,1.093c-0.728,0 -1.092,-0.364 -1.092,-1.093c0,-0.729 0.364,-1.093 1.092,-1.093c0.729,0 1.093,0.364 1.093,1.093Z" style="fill:#4e0003;fill-rule:nonzero;"/><path d="M127.472,74.574c0,0.729 -0.364,1.093 -1.093,1.093c-0.728,0 -1.093,-0.364 -1.093,-1.093c0,-0.729 0.365,-1.093 1.093,-1.093c0.729,0 1.093,0.364 1.093,1.093Z" style="fill:#4e0003;fill-rule:nonzero;"/><path d="M108.377,106.127c0,0.729 -0.365,1.094 -1.093,1.094c-0.729,0 -1.093,-0.365 -1.093,-1.094c0,-0.728 0.364,-1.093 1.093,-1.093c0.728,0 1.093,0.365 1.093,1.093Z" style="fill:#4e0003;fill-rule:nonzero;"/><ellipse cx="176.988" cy="38.982" rx="1.093" ry="1.093" style="fill:#4e0003;"/><path d="M28.897,78.249c0,0.729 -0.364,1.093 -1.093,1.093c-0.729,0 -1.093,-0.364 -1.093,-1.093c0,-0.729 0.364,-1.093 1.093,-1.093c0.729,0 1.093,0.364 1.093,1.093Z" style="fill:#4e0003;fill-rule:nonzero;"/><ellipse cx="56.19" cy="141.75" rx="1.093" ry="1.093" style="fill:#4e0003;"/></g></g></g></g></svg>