<?xml version="1.0" encoding="UTF-8" standalone="no"?><!DOCTYPE svg PUBLIC "-//W3C//DTD SVG 1.1//EN" "http://www.w3.org/Graphics/SVG/1.1/DTD/svg11.dtd"><svg width="100%" height="100%" viewBox="0 0 200 200" version="1.1" xmlns="http://www.w3.org/2000/svg" xmlns:xlink="http://www.w3.org/1999/xlink" xml:space="preserve" xmlns:serif="http://www.serif.com/" style="fill-rule:evenodd;clip-rule:evenodd;stroke-linejoin:round;stroke-miterlimit:1.41421;"><g><clipPath id="_clip1"><rect x="6.124" y="21.86" width="187.752" height="156.279"/></clipPath><g clip-path="url(#_clip1)"><path d="M135.094,57.154c-2.862,15.669 13.104,28.89 16.944,19.85c3.352,-7.872 -8.999,-20.415 -8.999,-20.415l-7.945,0.565Z" style="fill:#f9b01e;fill-rule:nonzero;"/><path d="M150.193,55.534c-6.777,-14.388 5.197,-31.263 11.259,-23.541c5.272,6.742 -3.426,22.035 -3.426,22.035l-7.833,1.506Z" style="fill:#f9b01e;fill-rule:nonzero;"/><path d="M115.062,58.774c-7.832,-16.649 6.74,-35.068 13.706,-26.141c6.1,7.797 -3.954,25.463 -3.954,25.463l-9.752,0.678Z" style="fill:#f9b01e;fill-rule:nonzero;"/><path d="M37.644,120.321c16.643,-4.52 32.345,11.526 22.969,16.498c-8.171,4.332 -22.856,-7.834 -22.856,-7.834l-0.113,-8.664Z" style="fill:#f9b01e;fill-rule:nonzero;"/><path d="M37.268,136.782c-16.154,-6.027 -33.287,8.475 -24.4,14.313c7.756,5.085 23.496,-5.688 23.496,-5.688l0.904,-8.625Z" style="fill:#f9b01e;fill-rule:nonzero;"/><path d="M37.607,98.55c-18.677,-6.969 -37.241,10.434 -26.961,17.176c8.962,5.876 27.111,-6.592 27.111,-6.592l-0.15,-10.584Z" style="fill:#f9b01e;fill-rule:nonzero;"/><path d="M60.915,51.805c5.874,7.91 8.811,16.95 15.626,24.521c7.719,8.551 19.053,10.811 29.71,10.735c7.455,-0.037 14.497,-1.205 21.651,-2.109l0.075,-0.151c-5.309,-8.927 -8.811,-16.95 -15.626,-24.521c-7.72,-8.55 -19.053,-10.81 -29.672,-10.735c-7.456,0.038 -14.497,1.206 -21.651,2.11" style="fill:#f9b01e;fill-rule:nonzero;"/><path d="M64.379,86.459c-1.017,9.228 -5.234,17.854 -5.272,27.271c-0.037,10.659 7.268,18.193 15.702,23.579c5.912,3.767 12.276,6.441 18.564,9.379l0.15,-0.075c2.222,-9.718 5.234,-17.817 5.272,-27.271c0.038,-10.66 -7.267,-18.231 -15.702,-23.58c-5.912,-3.766 -12.275,-6.441 -18.564,-9.379" style="fill:#f9b01e;fill-rule:nonzero;"/><path d="M70.742,74.104c-0.489,-0.377 -0.979,0.452 -0.489,0.829c9.376,6.817 20.861,11.187 32.157,13.221c0.602,0.113 0.866,-0.829 0.263,-0.904c-11.258,-2.034 -22.592,-6.366 -31.931,-13.146Z" style="fill:#e5750d;fill-rule:nonzero;"/><path d="M67.655,86.798c-0.452,-0.452 -1.092,0.226 -0.678,0.678c8.058,8.136 14.083,18.72 17.735,29.493c0.189,0.565 1.13,0.339 0.904,-0.264c-3.69,-10.923 -9.753,-21.621 -17.961,-29.907Z" style="fill:#e5750d;fill-rule:nonzero;"/><path d="M76.052,53.35c-0.603,-0.226 -0.866,0.753 -0.264,0.979c8.472,2.938 18.074,3.767 26.961,4.219c25.115,1.28 50.156,-2.524 74.405,-8.89c0.64,-0.15 0.377,-1.13 -0.264,-0.979c-24.475,6.441 -50.08,10.471 -75.459,8.776c-8.397,-0.527 -17.359,-1.28 -25.379,-4.105Z" style="fill:#e5750d;fill-rule:nonzero;"/><path d="M134.83,57.342c-8.51,-14.2 2.599,-31.715 9.64,-24.37c6.138,6.441 -1.28,23.165 -1.28,23.165l-8.36,1.205Z" style="fill:#e5750d;fill-rule:nonzero;"/><path d="M187.434,44.008c2.635,8.438 -19.392,8.136 -19.392,8.136c0,0 16.455,-17.477 19.392,-8.136Z" style="fill:#e5750d;fill-rule:nonzero;"/><path d="M114.158,58.548c-3.314,18.08 16.681,34.578 21.124,24.144c3.879,-9.078 -10.618,-24.446 -10.618,-24.446l-10.506,0.302Z" style="fill:#e5750d;fill-rule:nonzero;"/><path d="M151.398,54.555c-1.129,13.786 6.251,19.963 14.271,16.347c6.778,-3.051 -9.489,-16.912 -9.489,-16.912l-4.782,0.565Z" style="fill:#e5750d;fill-rule:nonzero;"/><path d="M162.055,52.747c2.296,4.143 5.798,9.417 10.43,11.187c3.652,1.431 8.058,0.414 8.736,-4.03c0.866,-5.65 -11.673,-9.718 -15.89,-8.287c-0.001,0 -3.276,1.13 -3.276,1.13Z" style="fill:#e5750d;fill-rule:nonzero;"/><path d="M166.912,51.805c4.217,-1.393 7.907,-3.955 9.79,-7.985c1.657,-3.578 2.222,-8.814 -3.238,-8.776c-3.69,0.037 -6.025,5.348 -7.38,8.098c-0.678,1.394 -3.201,9.68 -4.105,9.982c0.189,-0.302 4.895,-1.319 4.933,-1.319Z" style="fill:#e5750d;fill-rule:nonzero;"/><path d="M29.21,56.438c-0.302,-0.64 -1.243,-0.075 -0.942,0.565c3.728,8.4 5.46,18.08 6.74,27.12c3.916,27.271 2.071,55.032 -2.673,82.076c-0.113,0.678 0.941,0.98 1.054,0.302c4.669,-26.744 6.703,-54.391 2.824,-81.398c-1.355,-9.568 -3.05,-19.738 -7.003,-28.665Z" style="fill:#e5750d;fill-rule:nonzero;"/><path d="M38.096,119.869c-16.116,-7.91 -34.303,5.839 -25.68,12.769c7.493,6.065 24.889,-3.465 24.889,-3.465l0.791,-9.304Z" style="fill:#e5750d;fill-rule:nonzero;"/><path d="M37.268,96.328c19.241,-5.199 38.821,14.878 27.939,20.641c-9.451,5.01 -26.847,-9.266 -26.847,-9.266l-1.092,-11.375Z" style="fill:#e5750d;fill-rule:nonzero;"/><path d="M34.745,155.163c-1.092,4.671 -3.54,8.889 -7.757,11.3c-3.728,2.109 -9.301,3.202 -9.753,-2.674c-0.301,-3.955 5.234,-7.006 8.059,-8.701c1.43,-0.867 10.317,-4.52 10.543,-5.537c-0.264,0.037 -1.092,5.612 -1.092,5.612Z" style="fill:#e5750d;fill-rule:nonzero;"/><path d="M35.31,149.852c4.669,2.109 10.693,5.424 13.028,10.245c1.883,3.805 1.205,8.664 -3.577,9.794c-5.987,1.431 -11.522,-11.715 -10.355,-16.423c0.038,0 0.904,-3.616 0.904,-3.616Z" style="fill:#e5750d;fill-rule:nonzero;"/><path d="M36.289,138.175c14.798,-2.486 22.103,4.935 18.94,13.899c-2.674,7.609 -19.091,-8.738 -19.091,-8.738l0.151,-5.161Z" style="fill:#e5750d;fill-rule:nonzero;"/><path d="M31.996,178.14c9.564,0.452 3.163,-22.563 3.163,-22.563c0,0 -13.782,22.073 -3.163,22.563Z" style="fill:#e5750d;fill-rule:nonzero;"/><path d="M90.36,133.58c1.958,-1.017 0.565,-2.072 0.979,-2.335c0.979,-0.641 1.431,1.921 3.389,0.941c2.486,-1.243 0.038,-3.766 0.716,-4.256c0.715,-0.527 1.657,0.565 3.2,-1.092c3.578,-3.842 -14.534,-14.088 -14.534,-14.088c-4.293,5.198 2.071,23.015 6.25,20.83Z" style="fill:#a3421e;fill-rule:nonzero;"/><path d="M113.593,120.849c0.151,-0.264 0.113,-0.641 -0.301,-1.055c-0.414,-0.452 -0.791,-0.565 -1.092,-0.49c-0.075,-0.414 -0.339,-0.753 -1.092,-0.753c-0.941,-0.038 -1.28,0.339 -1.318,0.829c-0.339,-0.226 -0.715,-0.264 -1.205,0.188c-0.527,0.49 -0.527,0.942 -0.263,1.318c-0.565,0.151 -0.942,0.49 -0.753,1.168c0.112,0.414 0.376,0.64 0.677,0.753c-0.15,0.226 -0.188,0.528 0.076,0.904c0.339,0.49 0.715,0.565 1.092,0.452c0,0.415 0.188,0.791 0.828,0.942c0.941,0.264 1.243,-0.226 1.243,-0.866c0.226,0.263 0.564,0.376 1.092,0.113c0.753,-0.415 0.79,-0.904 0.451,-1.356c0.49,0.075 0.904,-0.113 0.979,-0.98c0.151,-0.64 -0.037,-1.017 -0.414,-1.167Zm-2.485,1.13c0,0 0,-0.038 0,0c0,-0.038 0,-0.038 0,0c0,-0.038 0,-0.038 0,0Z" style="fill:#a3421e;fill-rule:nonzero;"/><path d="M125.982,103.334c0.15,-0.264 0.113,-0.641 -0.302,-1.055c-0.414,-0.452 -0.79,-0.565 -1.092,-0.49c-0.075,-0.414 -0.339,-0.753 -1.092,-0.753c-0.941,-0.038 -1.28,0.339 -1.318,0.829c-0.338,-0.226 -0.715,-0.264 -1.204,0.188c-0.528,0.49 -0.528,0.942 -0.264,1.318c-0.565,0.151 -0.941,0.49 -0.753,1.168c0.113,0.414 0.376,0.64 0.678,0.753c-0.151,0.226 -0.189,0.528 0.075,0.904c0.339,0.49 0.715,0.565 1.092,0.452c0,0.415 0.188,0.791 0.828,0.942c0.942,0.264 1.243,-0.226 1.243,-0.866c0.226,0.263 0.565,0.376 1.092,0.113c0.753,-0.415 0.791,-0.904 0.452,-1.356c0.489,0.075 0.903,-0.113 0.979,-0.98c0.15,-0.602 -0.076,-0.979 -0.414,-1.167Zm-2.523,1.13c0,-0.038 0,-0.038 0,0c0,-0.038 0,0 0,0Z" style="fill:#a3421e;fill-rule:nonzero;"/><path d="M130.199,117.609c0.263,-0.489 0.188,-1.092 -0.527,-1.845c-0.791,-0.791 -1.431,-0.98 -1.958,-0.867c-0.113,-0.753 -0.64,-1.318 -1.921,-1.393c-1.656,-0.038 -2.297,0.602 -2.372,1.469c-0.602,-0.415 -1.318,-0.452 -2.184,0.339c-0.941,0.866 -0.941,1.657 -0.489,2.373c-1.055,0.226 -1.732,0.904 -1.356,2.147c0.226,0.753 0.678,1.167 1.243,1.318c-0.302,0.414 -0.302,0.942 0.15,1.657c0.603,0.867 1.318,1.055 1.996,0.829c0,0.753 0.376,1.394 1.506,1.695c1.695,0.49 2.222,-0.377 2.259,-1.582c0.415,0.49 1.017,0.716 1.921,0.226c1.355,-0.753 1.393,-1.62 0.828,-2.411c0.904,0.151 1.657,-0.188 1.77,-1.77c0.151,-1.205 -0.226,-1.883 -0.866,-2.185Zm-4.481,2.034c0,0 0,-0.037 -0.038,-0.037l0.038,0l0,0.037Z" style="fill:#a3421e;fill-rule:nonzero;"/><path d="M28.946,39.639c23.383,-16.95 25.869,31.753 25.869,31.753c-22.819,-1.846 -44.357,-18.344 -25.869,-31.753Z" style="fill:#a3421e;fill-rule:nonzero;"/><path d="M57.827,30.863c28.956,3.126 -1.883,40.83 -1.883,40.83c-9.187,-6.478 -29.634,-44.22 1.883,-40.83Z" style="fill:#a3421e;fill-rule:nonzero;"/><path d="M88.741,37.756c0.829,-0.791 -0.677,-3.692 -3.389,-6.441c-2.711,-2.75 -5.535,-4.294 -6.363,-3.503c-0.829,0.828 0.678,3.691 3.389,6.441c2.673,2.749 5.535,4.331 6.363,3.503Z" style="fill:#a3421e;fill-rule:nonzero;"/><path d="M105.159,61.674c1.129,0.113 2.297,-2.863 2.635,-6.629c0.339,-3.767 -0.301,-6.893 -1.43,-7.006c-1.13,-0.113 -2.297,2.862 -2.636,6.629c-0.339,3.804 0.301,6.931 1.431,7.006Z" style="fill:#a3421e;fill-rule:nonzero;"/><path d="M40.995,106.837c-27.374,-11.263 13.405,-43.016 13.405,-43.016c0,0 16.117,55.144 -13.405,43.016Z" style="fill:#a3421e;fill-rule:nonzero;"/><path d="M12.114,63.859c0.716,20.716 45.525,10.659 45.374,10.697c0,-13.033 -46.202,-35.633 -45.374,-10.697Z" style="fill:#a3421e;fill-rule:nonzero;"/><path d="M17.235,86.647c-9.15,-22.713 37.165,-16.724 37.165,-16.724c3.013,7.533 -28.052,39.4 -37.165,16.724Z" style="fill:#a3421e;fill-rule:nonzero;"/><path d="M105.723,135.652c0.979,0.188 1.055,2.938 0.113,6.139c-0.941,3.202 -2.447,5.65 -3.426,5.462c-0.979,-0.188 -1.054,-2.938 -0.113,-6.14c0.904,-3.201 2.447,-5.65 3.426,-5.461Z" style="fill:#a3421e;fill-rule:nonzero;"/><path d="M137.127,91.393c0.527,-0.866 3.163,-0.301 5.837,1.243c2.711,1.545 4.443,3.503 3.916,4.37c-0.527,0.866 -3.163,0.301 -5.837,-1.243c-2.673,-1.545 -4.443,-3.504 -3.916,-4.37Z" style="fill:#a3421e;fill-rule:nonzero;"/><path d="M69.161,160.361c0.828,0.866 -0.979,3.616 -4.067,6.177c-3.087,2.562 -6.288,3.918 -7.116,3.089c-0.866,-0.866 0.979,-3.616 4.029,-6.177c3.087,-2.562 6.288,-3.955 7.154,-3.089Z" style="fill:#a3421e;fill-rule:nonzero;"/><path d="M74.244,149.174c1.168,-0.339 3.013,2.298 4.105,5.914c1.092,3.616 1.016,6.78 -0.189,7.119c-1.205,0.339 -3.012,-2.336 -4.104,-5.914c-1.092,-3.578 -1.017,-6.78 0.188,-7.119Z" style="fill:#a3421e;fill-rule:nonzero;"/><path d="M36.402,124.691c-0.791,0.904 -3.653,-0.754 -6.402,-3.692c-2.711,-2.938 -4.292,-6.026 -3.464,-6.93c0.791,-0.904 3.653,0.753 6.401,3.691c2.712,2.938 4.255,6.027 3.465,6.931Z" style="fill:#a3421e;fill-rule:nonzero;"/><path d="M39.414,137.347c0.113,1.205 -2.824,2.561 -6.552,2.975c-3.728,0.415 -6.853,-0.226 -6.966,-1.431c-0.113,-1.243 2.824,-2.561 6.552,-3.013c3.728,-0.377 6.853,0.263 6.966,1.469Z" style="fill:#a3421e;fill-rule:nonzero;"/><path d="M67.768,106.912c-27.375,9.191 -15.213,-38.006 -15.213,-38.006c21.2,8.55 36.864,30.736 15.213,38.006Z" style="fill:#a3421e;fill-rule:nonzero;"/><path d="M82.604,39.865c20.86,20.98 -29.07,34.465 -29.07,34.465c0,0 6.59,-57.065 29.07,-34.465Z" style="fill:#a3421e;fill-rule:nonzero;"/><path d="M90.549,90.338c6.627,-24.031 -40.102,-23.73 -40.102,-23.73c-3.879,12.468 33.475,47.762 40.102,23.73Z" style="fill:#a3421e;fill-rule:nonzero;"/><path d="M95.82,65.554c1.958,24.408 -40.441,4.896 -40.441,4.896c-0.677,-8.136 38.483,-29.304 40.441,-4.896Z" style="fill:#a3421e;fill-rule:nonzero;"/><path d="M103.427,118.513c1.355,-2.373 -8.096,-0.791 -3.05,-6.78c5.045,-5.951 -16.983,0.264 -16.983,0.264c8.435,9.756 18.677,8.889 20.033,6.516Z" style="fill:#4e0003;fill-rule:nonzero;"/><path d="M56.848,72.673c-22.819,-1.846 -47.181,-19.248 -27.902,-33.034" style="fill:#4e0003;fill-rule:nonzero;"/><path d="M55.907,72.786c-9.226,-6.479 -29.597,-45.313 1.92,-41.923" style="fill:#4e0003;fill-rule:nonzero;"/><path d="M54.4,63.821c0,0 16.079,55.144 -13.405,43.016" style="fill:#4e0003;fill-rule:nonzero;"/><path d="M53.911,69.245c3.389,7.948 -27.337,40.454 -36.676,17.364" style="fill:#4e0003;fill-rule:nonzero;"/><path d="M12.114,62.239c-0.979,24.935 46.541,9.002 46.541,9.002" style="fill:#4e0003;fill-rule:nonzero;"/><path d="M104.519,60.921c0.338,1.431 4.518,1.695 9.3,0.565c4.782,-1.13 8.397,-3.202 8.058,-4.671c-0.339,-1.431 -4.481,-1.695 -9.3,-0.565c-4.745,1.168 -8.397,3.239 -8.058,4.671Z" style="fill:#4e0003;fill-rule:nonzero;"/><path d="M87.913,37.831c1.318,0.678 4.18,-2.335 6.439,-6.705c2.259,-4.407 3.012,-8.475 1.694,-9.153c-1.318,-0.678 -4.217,2.336 -6.439,6.743c-2.259,4.369 -3.012,8.437 -1.694,9.115Z" style="fill:#4e0003;fill-rule:nonzero;"/><path d="M137.014,91.694c-0.075,-1.28 3.239,-2.825 7.456,-3.503c4.217,-0.678 7.681,-0.226 7.794,1.055c0.076,1.243 -3.238,2.825 -7.455,3.503c-4.18,0.678 -7.682,0.188 -7.795,-1.055Z" style="fill:#4e0003;fill-rule:nonzero;"/><path d="M105.385,135.802c1.092,-0.753 3.878,1.356 6.213,4.709c2.334,3.352 3.313,6.667 2.221,7.42c-1.129,0.753 -3.878,-1.356 -6.213,-4.708c-2.334,-3.315 -3.313,-6.667 -2.221,-7.421Z" style="fill:#4e0003;fill-rule:nonzero;"/><path d="M68.483,160.097c1.619,0 2.937,3.993 2.975,8.89c0.038,4.896 -1.243,8.889 -2.862,8.851c-1.619,0 -2.937,-3.992 -2.975,-8.889c-0.037,-4.897 1.243,-8.852 2.862,-8.852Z" style="fill:#4e0003;fill-rule:nonzero;"/><path d="M73.868,149.4c0.979,-1.205 5.234,0.113 9.489,2.938c4.292,2.825 6.966,6.102 5.987,7.307c-0.979,1.206 -5.197,-0.113 -9.489,-2.938c-4.255,-2.825 -6.966,-6.102 -5.987,-7.307Z" style="fill:#4e0003;fill-rule:nonzero;"/><path d="M116.832,78.473c-0.528,-2.674 -6.665,4.709 -6.741,-3.126c-0.075,-7.797 -12.652,11.3 -12.652,11.3c12.728,1.846 19.92,-5.499 19.393,-8.174Z" style="fill:#4e0003;fill-rule:nonzero;"/><path d="M106.702,104.803c-2.146,1.695 -1.995,-7.873 -7.154,-1.997c-5.159,5.876 -2.297,-16.762 -2.297,-16.762c10.92,6.818 11.598,17.064 9.451,18.759Z" style="fill:#4e0003;fill-rule:nonzero;"/><path d="M39.301,137.196c1.017,1.168 -1.017,5.123 -4.556,8.814c-3.54,3.691 -7.23,5.763 -8.247,4.595c-1.016,-1.167 1.017,-5.122 4.594,-8.814c3.502,-3.691 7.192,-5.763 8.209,-4.595Z" style="fill:#4e0003;fill-rule:nonzero;"/><path d="M36.59,124.05c0.075,1.62 -3.803,3.164 -8.698,3.466c-4.895,0.301 -8.924,-0.754 -9,-2.336c-0.075,-1.619 3.803,-3.164 8.698,-3.465c4.896,-0.339 8.925,0.716 9,2.335Z" style="fill:#4e0003;fill-rule:nonzero;"/><path d="M119.844,90.301c-0.716,2.071 -1.958,0.866 -2.146,1.318c-0.49,1.055 2.146,1.13 1.468,3.202c-0.866,2.674 -3.728,0.602 -4.104,1.356c-0.414,0.791 0.791,1.544 -0.603,3.315c-3.276,4.105 -16.116,-12.242 -16.116,-12.242c4.481,-5.01 23.045,-1.394 21.501,3.051Z" style="fill:#4e0003;fill-rule:nonzero;"/><path d="M50.974,67.06c21.237,8.551 39.612,32.243 16.794,39.852" style="fill:#4e0003;fill-rule:nonzero;"/><path d="M53.572,74.33c0,0 6.552,-57.065 29.069,-34.465" style="fill:#4e0003;fill-rule:nonzero;"/><path d="M55.643,71.204c-0.64,-8.136 38.144,-30.51 40.177,-5.65" style="fill:#4e0003;fill-rule:nonzero;"/><path d="M90.549,90.338c6.853,-25.236 -41.721,-22.449 -41.721,-22.449" style="fill:#4e0003;fill-rule:nonzero;"/><path d="M83.658,111.922c-0.113,-0.226 -0.452,0 -0.339,0.188c1.807,2.938 5.121,4.595 8.322,2.825c0.226,-0.113 0.037,-0.452 -0.189,-0.339c-3.012,1.657 -6.1,0.038 -7.794,-2.674Z" style="fill:#fff;fill-rule:nonzero;"/><path d="M83.545,111.884c-0.113,-0.226 -0.452,-0.038 -0.339,0.188c1.582,2.825 1.469,6.291 -1.506,8.136c-0.226,0.113 0,0.452 0.188,0.339c3.126,-1.921 3.351,-5.612 1.657,-8.663Z" style="fill:#fff;fill-rule:nonzero;"/><path d="M90.323,119.982c-0.113,0.226 -0.377,0.339 -0.603,0.264c-0.226,-0.113 -0.339,-0.377 -0.263,-0.603c0.113,-0.226 0.376,-0.339 0.602,-0.263c0.264,0.075 0.377,0.376 0.264,0.602Z" style="fill:#fff;fill-rule:nonzero;"/><path d="M89.909,122.355c-0.113,0.226 -0.377,0.339 -0.603,0.226c-0.226,-0.113 -0.339,-0.376 -0.263,-0.602c0.113,-0.226 0.376,-0.339 0.602,-0.264c0.226,0.151 0.339,0.414 0.264,0.64Z" style="fill:#fff;fill-rule:nonzero;"/><path d="M87.574,121.941c-0.093,0.239 -0.363,0.357 -0.602,0.264c-0.239,-0.094 -0.358,-0.364 -0.264,-0.603c0.093,-0.239 0.363,-0.357 0.602,-0.264c0.239,0.094 0.358,0.364 0.264,0.603Z" style="fill:#fff;"/><path d="M83.733,112.072c-0.113,-0.226 -0.452,-0.037 -0.339,0.189c1.507,2.712 2.975,5.386 4.481,8.098c0.113,0.226 0.452,0.038 0.339,-0.188c-1.506,-2.675 -3.012,-5.387 -4.481,-8.099Z" style="fill:#fff;fill-rule:nonzero;"/><path d="M110.995,122.129c0.113,0.113 0.301,0.113 0.414,0.038c0.113,-0.113 0.113,-0.301 0,-0.414c-0.113,-0.113 -0.301,-0.113 -0.414,-0.038c-0.113,0.075 -0.113,0.264 0,0.414Z" style="fill:#fff;fill-rule:nonzero;"/><path d="M123.346,104.614c0.113,0.113 0.301,0.113 0.414,0.038c0.113,-0.113 0.113,-0.301 0,-0.414c-0.113,-0.113 -0.301,-0.113 -0.414,-0.038c-0.113,0.113 -0.113,0.301 0,0.414Z" style="fill:#fff;fill-rule:nonzero;"/><path d="M125.492,121.15c0.188,0.226 0.527,0.226 0.753,0.038c0.188,-0.189 0.188,-0.528 0,-0.754c-0.188,-0.226 -0.527,-0.226 -0.753,-0.037c-0.188,0.226 -0.188,0.527 0,0.753Z" style="fill:#fff;fill-rule:nonzero;"/><path d="M97.552,86.609c-0.225,-0.113 -0.338,0.264 -0.113,0.377c2.975,1.243 5.009,4.106 3.804,7.345c-0.076,0.226 0.263,0.339 0.376,0.113c1.28,-3.465 -0.904,-6.516 -4.067,-7.835Z" style="fill:#fff;fill-rule:nonzero;"/><path d="M97.854,86.572c-0.226,-0.076 -0.339,0.263 -0.113,0.376c3.2,1.206 6.853,0.452 8.284,-2.9c0.075,-0.226 -0.226,-0.414 -0.339,-0.188c-1.356,3.201 -4.782,3.842 -7.832,2.712Z" style="fill:#fff;fill-rule:nonzero;"/><path d="M106.406,92.343c-0.222,0.137 -0.517,0.066 -0.656,-0.16c-0.14,-0.226 -0.073,-0.521 0.15,-0.659c0.222,-0.137 0.516,-0.066 0.656,0.16c0.14,0.226 0.073,0.521 -0.15,0.659Z" style="fill:#fff;"/><path d="M108.698,91.544c0.226,-0.113 0.301,-0.415 0.151,-0.641c-0.151,-0.226 -0.414,-0.301 -0.64,-0.15c-0.226,0.15 -0.302,0.414 -0.151,0.64c0.151,0.226 0.452,0.301 0.64,0.151Z" style="fill:#fff;fill-rule:nonzero;"/><path d="M107.957,89.303c-0.222,0.138 -0.518,0.064 -0.66,-0.165c-0.142,-0.229 -0.076,-0.527 0.147,-0.665c0.222,-0.137 0.518,-0.063 0.659,0.166c0.142,0.229 0.077,0.526 -0.146,0.664Z" style="fill:#fff;"/><path d="M97.741,86.609c-0.226,-0.075 -0.339,0.264 -0.113,0.377c2.899,1.092 5.799,2.147 8.698,3.239c0.226,0.076 0.339,-0.263 0.113,-0.376c-2.899,-1.093 -5.799,-2.147 -8.698,-3.24Z" style="fill:#fff;fill-rule:nonzero;"/><path d="M59.484,70.902c0,3.014 -1.506,4.52 -4.519,4.52c-3.012,0 -4.518,-1.506 -4.518,-4.52c0,-3.013 1.506,-4.52 4.518,-4.52c3.013,0 4.519,1.507 4.519,4.52Z" style="fill:#fff;fill-rule:nonzero;"/><path d="M78.499,131.471c-2.711,-0.113 3.653,-7.27 -4.104,-6.178c-7.719,1.093 9.263,-14.2 9.263,-14.2c3.765,12.279 -2.41,20.528 -5.159,20.378Z" style="fill:#4e0003;fill-rule:nonzero;"/><path d="M65.734,152.752c-1.355,0 -2.409,-1.092 -2.409,-2.448c0,-1.356 1.092,-2.411 2.409,-2.411c1.318,0 2.41,1.093 2.41,2.411c0.038,1.356 -1.054,2.448 -2.41,2.448Z" style="fill:#4e0003;fill-rule:nonzero;"/><path d="M188.149,57.305c-1.355,0 -2.41,-1.093 -2.41,-2.449c0,-1.356 1.092,-2.41 2.41,-2.41c1.356,0 2.41,1.092 2.41,2.41c0.038,1.356 -1.054,2.449 -2.41,2.449Z" style="fill:#4e0003;fill-rule:nonzero;"/><path d="M9.403,94.444c-1.355,0 -2.41,-1.092 -2.41,-2.411c0,-1.356 1.092,-2.41 2.41,-2.41c1.318,0 2.41,1.092 2.41,2.41c0,1.319 -1.092,2.411 -2.41,2.411Z" style="fill:#4e0003;fill-rule:nonzero;"/><path d="M107.192,40.129c0,1.607 -0.803,2.41 -2.41,2.41c-1.606,0 -2.41,-0.803 -2.41,-2.41c0,-1.607 0.804,-2.411 2.41,-2.411c1.607,0 2.41,0.804 2.41,2.411Z" style="fill:#4e0003;fill-rule:nonzero;"/><ellipse cx="98.381" cy="44.611" rx="1.356" ry="1.356" style="fill:#4e0003;"/><path d="M72.776,143.26c0,0.904 -0.452,1.356 -1.356,1.356c-0.903,0 -1.355,-0.452 -1.355,-1.356c0,-0.904 0.452,-1.356 1.355,-1.356c0.904,0 1.356,0.452 1.356,1.356Z" style="fill:#4e0003;fill-rule:nonzero;"/><path d="M131.103,92.598c0,0.904 -0.452,1.356 -1.356,1.356c-0.904,0 -1.356,-0.452 -1.356,-1.356c0,-0.904 0.452,-1.356 1.356,-1.356c0.904,0 1.356,0.452 1.356,1.356Z" style="fill:#4e0003;fill-rule:nonzero;"/><path d="M107.418,131.734c0,0.904 -0.452,1.356 -1.356,1.356c-0.903,0 -1.355,-0.452 -1.355,-1.356c0,-0.904 0.452,-1.356 1.355,-1.356c0.904,0 1.356,0.452 1.356,1.356Z" style="fill:#4e0003;fill-rule:nonzero;"/><ellipse cx="192.517" cy="48.453" rx="1.356" ry="1.356" style="fill:#4e0003;"/><path d="M8.839,97.156c0,0.904 -0.452,1.356 -1.356,1.356c-0.904,0 -1.356,-0.452 -1.356,-1.356c0,-0.904 0.452,-1.356 1.356,-1.356c0.904,0 1.356,0.452 1.356,1.356Z" style="fill:#4e0003;fill-rule:nonzero;"/><ellipse cx="42.69" cy="175.917" rx="1.356" ry="1.356" style="fill:#4e0003;"/></g></g></svg>